<svg xmlns="http://www.w3.org/2000/svg" viewBox="-100 0 1300 1174">
    <path d="M593.173787,0 C265.971472,0 0,263.420187 0,586.795574 C0,910.170962 265.971472,1173.59115 593.173787,1173.59115 C722.013685,1173.59115 845.751013,1132.13277 950.353702,1053.68075 L952.267166,1051.76729 C958.645379,1044.75125 961.834485,1035.82175 961.834485,1026.89226 C961.834485,1005.84415 944.613311,989.2608 923.565209,989.2608 C913.997889,989.2608 904.43057,992.449906 897.414536,998.828119 L896.776715,998.828119 C807.481736,1063.88589 702.879047,1097.69042 593.173787,1097.69042 C309.98114,1097.69042 79.7276596,869.988221 79.7276596,589.984681 C79.7276596,309.98114 309.98114,82.2789447 593.173787,82.2789447 C876.366434,82.2789447 1106.61991,309.98114 1106.61991,589.984681 C1106.61991,675.452732 1086.84746,755.180391 1048.57818,827.254196 C1047.94036,828.529838 1047.30254,829.805481 1047.30254,831.081123 C1046.66471,833.632409 1045.38907,836.821515 1045.38907,841.286264 C1045.38907,862.334366 1062.61025,878.917719 1083.65835,878.917719 C1098.96606,878.917719 1112.36031,869.988221 1118.73852,855.956153 C1163.38601,770.488102 1185.7109,679.917481 1185.7109,586.795574 C1186.34757,263.420187 920.376102,0 593.173787,0 L593.173787,0 Z M966.937055,551.077583 C927.392136,524.926911 877.642077,552.991047 868.712579,558.731438 C867.436936,559.36926 738.597038,635.269991 709.25726,651.853345 C699.052119,657.593736 681.193123,651.215523 675.452732,646.750774 C636.545634,601.465464 607.843677,558.731438 589.984681,519.186519 C573.401328,482.830706 590.622502,467.522996 593.811609,464.971711 C602.741106,459.231319 736.683574,379.50366 772.401566,361.006843 C802.379166,345.699132 823.427268,329.7536 829.805481,304.87857 C833.632409,288.295217 829.805481,271.074043 818.324698,255.128511 C790.898383,215.583591 603.378928,149.250179 430.529362,250.663762 C234.71823,364.83377 241.096443,552.991047 243.009906,614.859711 L243.009906,626.340494 C243.009906,649.939881 227.064374,672.901447 224.513089,676.728374 L198.362417,703.516868 C190.708562,711.170723 186.881634,720.738043 186.881634,731.581004 C186.881634,742.423966 191.346383,751.991285 199.000238,759.64514 C214.94577,774.952851 239.8208,774.31503 255.128511,759.007319 L283.192647,729.66754 L283.830468,729.029719 C287.657396,724.56497 321.461923,681.193123 321.461923,626.978315 L320.824102,612.946247 C318.910638,557.455796 313.808068,410.119081 469.43646,319.54846 C579.141719,255.766332 685.020051,279.365719 729.66754,294.67343 C683.744409,318.910638 551.077583,398.638298 549.164119,399.91394 C521.737804,417.772936 479.6416,473.263387 516.635234,552.991047 C538.321157,599.552 570.850043,648.664238 617.410996,702.879047 C635.269991,724.56497 695.863013,749.44 746.250894,722.013685 C776.866315,705.430332 902.517106,630.805243 908.257498,627.616136 C910.808783,626.340494 913.997889,624.42703 917.824817,623.151387 C917.824817,626.340494 917.186996,630.805243 916.549174,636.545634 C909.53314,681.193123 872.539506,829.805481 678.004017,862.972187 C616.135353,873.815149 566.385294,867.436936 526.202553,862.334366 L525.564732,862.334366 C478.365957,856.593974 434.356289,850.853583 398.638298,880.193362 C359.7312,912.722247 347.612596,922.927387 353.990809,947.802417 C358.455557,965.661413 374.401089,977.780017 392.260085,977.780017 C395.449191,977.780017 398.638298,977.142196 401.827404,976.504374 C410.119081,974.590911 417.772936,969.48834 422.875506,963.110128 C425.426791,960.558843 432.442826,954.818451 449.026179,940.148562 C457.317855,933.132528 480.279421,935.683813 514.72177,940.148562 C558.093617,945.888953 616.773174,952.904987 690.760443,940.786383 C886.571574,907.619677 975.866553,767.936817 993.725549,648.664238 C1003.29287,600.189821 993.725549,568.298757 966.937055,551.077583 L966.937055,551.077583 Z"
        fill="white" />
</svg>