<svg xmlns="http://www.w3.org/2000/svg" xmlns:xlink="http://www.w3.org/1999/xlink" viewBox="0 0 1024 1024">
    <path d="M512 0c25 0 42 17 42 42v85c0 25-17 42-42 42s-42-17-42-42V42c0-25 17-42 42-42zM512 853c25 0 42 17 42 42v85c0 25-17 42-42 42s-42-17-42-42v-85c0-25 17-42 42-42zM209 149c-17-17-42-17-59 0-17 17-17 42 0 59l59 59c17 17 42 17 59 0 17-17 17-42 0-59L209 149zM755 755c17-17 42-17 59 0l59 59c17 17 17 42 0 59s-42 17-59 0l-59-59c-17-17-17-46 0-59zM42 469c-25 0-42 17-42 42s17 42 42 42h85c25 0 42-17 42-42s-17-42-42-42H42zM853 512c0-25 17-42 42-42h85c25 0 42 17 42 42s-17 42-42 42h-85c-25 0-42-17-42-42zM149 814c-17 17-17 42 0 59 17 17 42 17 59 0l59-59c17-17 17-42 0-59-17-17-42-17-59 0l-59 59zM755 268c-17-17-17-42 0-59l59-59c17-17 42-17 59 0s17 42 0 59l-59 59c-17 17-46 17-59 0z M512 213c-166 0-298 132-298 298s132 298 298 298 298-132 298-298-132-298-298-298z m0 512c-119 0-213-93-213-213s93-213 213-213 213 93 213 213-93 213-213 213z"
        fill="white"/>
</svg>