<svg xmlns="http://www.w3.org/2000/svg" width="13" height="13" viewBox="0 0 230 230">
    <path d="M195.795 33.205C175.185 12.595 146.56 0 114.5 0C65.265 0 24.045 30.915 6.87 74.425L34.35 84.73C45.8 51.525 77.86 28.625 114.5 28.625C138.545 28.625 159.155 37.785 175.185 53.815L143.125 85.875L229 85.875L229 0L195.795 33.205ZM114.5 200.375C90.455 200.375 69.845 191.215 53.815 175.185L85.875 143.125L0 143.125L0 229L33.205 195.795C53.815 216.405 82.44 229 114.5 229C163.735 229 204.955 198.085 222.13 154.575L194.65 144.27C183.2 177.475 151.14 200.375 114.5 200.375Z"
        fill="white" />
</svg>