<svg xmlns="http://www.w3.org/2000/svg" xmlns:xlink="http://www.w3.org/1999/xlink" viewBox="0 0 17 17">
    <path d="M13.2973 17.0653L9.14801 17.0653C9.13584 17.0651 9.12365 17.0646 9.11149 17.0638C9.09934 17.0631 9.08722 17.062 9.07509 17.0607C9.06299 17.0593 9.05091 17.0576 9.03887 17.0557C9.02685 17.0538 9.01488 17.0515 9.00296 17.049C8.99105 17.0465 8.97918 17.0436 8.9674 17.0405C8.95562 17.0374 8.94392 17.034 8.9323 17.0304C8.92069 17.0267 8.90916 17.0227 8.89774 17.0185C8.88632 17.0143 8.875 17.0098 8.86379 17.005C8.85258 17.0002 8.8415 16.9951 8.83055 16.9898C8.81959 16.9845 8.80877 16.9789 8.79807 16.973C8.78739 16.9672 8.77684 16.9611 8.76644 16.9547C8.75606 16.9484 8.74583 16.9418 8.73574 16.9349C8.72568 16.928 8.71579 16.9209 8.70607 16.9136C8.69635 16.9062 8.6868 16.8987 8.67744 16.8909C8.66808 16.883 8.65894 16.875 8.64996 16.8668C8.64101 16.8585 8.63224 16.85 8.62369 16.8414C8.61514 16.8327 8.6068 16.8238 8.59868 16.8147C8.59055 16.8056 8.58266 16.7963 8.57498 16.7869C8.56733 16.7774 8.55988 16.7678 8.55269 16.7579C8.5455 16.7481 8.53853 16.7381 8.53181 16.7279C8.5251 16.7178 8.51864 16.7075 8.51243 16.697C8.50622 16.6865 8.50026 16.6759 8.49456 16.6651C8.48888 16.6543 8.48346 16.6434 8.47827 16.6324C8.47312 16.6213 8.46823 16.6102 8.46359 16.5989C8.45898 16.5876 8.45464 16.5762 8.45057 16.5648C8.44651 16.5533 8.44273 16.5417 8.43922 16.53C8.43571 16.5183 8.43249 16.5066 8.42956 16.4948C8.42662 16.483 8.42399 16.4711 8.42163 16.4591C8.41928 16.4472 8.41722 16.4352 8.41543 16.4231C8.41367 16.411 8.4122 16.3989 8.41101 16.3868C8.40982 16.3747 8.40895 16.3625 8.40835 16.3504C8.40776 16.3382 8.40746 16.326 8.40746 16.3138L8.40746 14.6694C8.40746 14.6554 8.40712 14.6414 8.40642 14.6273C8.40574 14.6134 8.40471 14.5994 8.40331 14.5854C8.40193 14.5715 8.40021 14.5576 8.39812 14.5437C8.39606 14.5299 8.39365 14.5161 8.39089 14.5023C8.38812 14.4886 8.38504 14.4749 8.38159 14.4613C8.37817 14.4477 8.3744 14.4342 8.3703 14.4208C8.36622 14.4074 8.36179 14.3941 8.35703 14.381C8.35226 14.3678 8.34718 14.3547 8.34178 14.3418C8.33637 14.3288 8.33065 14.3161 8.32461 14.3034C8.31857 14.2907 8.31223 14.2783 8.30557 14.2659C8.29892 14.2536 8.29196 14.2414 8.28469 14.2294C8.27745 14.2174 8.2699 14.2056 8.26205 14.194C8.25423 14.1824 8.2461 14.171 8.23768 14.1598C8.22928 14.1486 8.2206 14.1376 8.21164 14.1268C8.20269 14.116 8.19348 14.1054 8.18399 14.0951C8.17453 14.0848 8.16481 14.0747 8.15483 14.0648C8.14486 14.055 8.13465 14.0454 8.12418 14.0361C8.11376 14.0267 8.10308 14.0176 8.09217 14.0088C8.08128 14 8.07015 13.9915 8.05884 13.9832C8.04752 13.9749 8.03601 13.967 8.02427 13.9593C8.01258 13.9516 8.00066 13.9442 7.98858 13.9371C7.9765 13.93 7.96425 13.9232 7.95183 13.9167C7.93943 13.9102 7.92686 13.904 7.91411 13.8981C7.90139 13.8922 7.88855 13.8867 7.87553 13.8814C7.86253 13.8762 7.84941 13.8713 7.83616 13.8667C7.82293 13.8621 7.80957 13.8579 7.79613 13.8539C7.78269 13.85 7.76914 13.8464 7.75548 13.8431C7.74187 13.8399 7.72817 13.8369 7.71439 13.8344C7.7006 13.8318 7.68678 13.8296 7.67289 13.8277C7.659 13.8258 7.64507 13.8242 7.63111 13.823C7.61716 13.8218 7.60316 13.8209 7.58915 13.8204C7.57515 13.8199 7.56113 13.8197 7.54712 13.8199L6.74123 13.8199C6.72727 13.8199 6.7133 13.8203 6.69935 13.8209C6.68539 13.8216 6.67148 13.8226 6.65757 13.824C6.64368 13.8254 6.62981 13.8271 6.61599 13.8291C6.60218 13.8311 6.58842 13.8335 6.5747 13.8362C6.561 13.8389 6.54739 13.8419 6.53382 13.8453C6.52027 13.8487 6.50681 13.8523 6.49343 13.8564C6.48007 13.8604 6.4668 13.8647 6.45361 13.8694C6.44046 13.8741 6.42742 13.8791 6.41449 13.8844C6.40156 13.8897 6.38878 13.8953 6.37612 13.9012C6.36349 13.9071 6.35098 13.9134 6.33864 13.9199C6.32631 13.9264 6.31412 13.9333 6.3021 13.9404C6.2901 13.9475 6.27828 13.9549 6.26662 13.9626C6.25497 13.9704 6.24352 13.9783 6.23225 13.9866C6.221 13.9949 6.20994 14.0034 6.19909 14.0122C6.18824 14.021 6.17763 14.03 6.1672 14.0394C6.1568 14.0487 6.14664 14.0582 6.13668 14.068C6.12677 14.0779 6.11707 14.0879 6.1076 14.0982C6.09816 14.1085 6.08897 14.119 6.08002 14.1297C6.07108 14.1405 6.06243 14.1514 6.054 14.1626C6.04562 14.1737 6.0375 14.1851 6.02963 14.1966C6.02178 14.2082 6.01421 14.2199 6.00693 14.2318C5.99966 14.2438 5.99266 14.2558 5.98598 14.2681C5.9793 14.2804 5.9729 14.2928 5.96679 14.3054C5.96071 14.3179 5.95495 14.3306 5.94948 14.3435C5.94401 14.3563 5.93887 14.3693 5.93402 14.3824C5.92919 14.3955 5.92468 14.4087 5.92047 14.422C5.9163 14.4354 5.91243 14.4488 5.90888 14.4623C5.90534 14.4758 5.90215 14.4894 5.89926 14.5031C5.89639 14.5168 5.89384 14.5305 5.89163 14.5443C5.88943 14.5581 5.88756 14.5719 5.88601 14.5858C5.88448 14.5997 5.88329 14.6136 5.88244 14.6275C5.88159 14.6415 5.88105 14.6554 5.88088 14.6694L5.88088 16.3138C5.88108 16.3261 5.88095 16.3383 5.88052 16.3505C5.8801 16.3628 5.87937 16.375 5.87833 16.3871C5.87731 16.3993 5.87597 16.4115 5.87433 16.4236C5.87272 16.4357 5.87078 16.4478 5.86853 16.4599C5.86631 16.4719 5.86378 16.4838 5.86095 16.4957C5.85812 16.5076 5.855 16.5195 5.85159 16.5312C5.84819 16.543 5.84449 16.5546 5.84049 16.5662C5.83651 16.5778 5.83224 16.5892 5.82767 16.6006C5.82311 16.6119 5.81829 16.6231 5.81316 16.6343C5.80805 16.6454 5.80267 16.6564 5.79702 16.6672C5.79136 16.6781 5.78544 16.6888 5.77923 16.6993C5.77306 16.7099 5.76662 16.7203 5.7599 16.7305C5.7532 16.7407 5.74624 16.7508 5.73903 16.7607C5.73184 16.7706 5.72442 16.7803 5.71672 16.7898C5.70904 16.7993 5.70113 16.8086 5.69296 16.8178C5.68484 16.8269 5.67646 16.8358 5.66786 16.8445C5.65929 16.8532 5.65051 16.8617 5.64149 16.87C5.63247 16.8783 5.62326 16.8863 5.61386 16.8942C5.60445 16.902 5.59486 16.9096 5.58508 16.9169C5.57529 16.9242 5.56534 16.9314 5.55519 16.9382C5.54507 16.9451 5.53475 16.9517 5.52429 16.958C5.51384 16.9643 5.50323 16.9704 5.49247 16.9762C5.4817 16.9821 5.47081 16.9876 5.45975 16.9929C5.44873 16.9982 5.43757 17.0032 5.42627 17.0079C5.415 17.0126 5.4036 17.017 5.39209 17.0212C5.38058 17.0253 5.36897 17.0292 5.35727 17.0328C5.34557 17.0364 5.33381 17.0397 5.32194 17.0427C5.31007 17.0457 5.29816 17.0484 5.28617 17.0508C5.27417 17.0532 5.26213 17.0553 5.25001 17.0571C5.23792 17.0589 5.22578 17.0604 5.21361 17.0617C5.20145 17.0629 5.18924 17.0638 5.17701 17.0644C5.1648 17.065 5.15259 17.0653 5.14034 17.0653L0.860415 17.0653C0.846036 17.0647 0.831672 17.0639 0.817321 17.0627C0.802985 17.0614 0.788678 17.0599 0.774397 17.058C0.760133 17.056 0.745925 17.0538 0.731772 17.0512C0.717606 17.0486 0.703518 17.0457 0.689507 17.0424C0.675499 17.0391 0.661573 17.0355 0.647733 17.0315C0.633879 17.0276 0.620139 17.0233 0.606513 17.0187C0.592885 17.014 0.57937 17.0091 0.565969 17.0038C0.552569 16.9985 0.539311 16.993 0.526194 16.9871C0.513064 16.9811 0.500089 16.9749 0.487269 16.9684C0.474452 16.9618 0.461796 16.955 0.449302 16.9478C0.43681 16.9407 0.424494 16.9332 0.412355 16.9255C0.400231 16.9177 0.388298 16.9097 0.376557 16.9014C0.364803 16.893 0.353266 16.8844 0.34195 16.8756C0.330622 16.8667 0.31951 16.8575 0.30862 16.8481C0.297744 16.8387 0.287094 16.829 0.276672 16.8191C0.266264 16.8091 0.256097 16.799 0.24617 16.7885C0.236245 16.7781 0.226574 16.7674 0.217157 16.7566C0.207757 16.7457 0.198618 16.7345 0.189741 16.7232C0.180878 16.7119 0.172285 16.7003 0.163961 16.6886C0.155652 16.6768 0.147633 16.6649 0.139904 16.6527C0.132162 16.6406 0.124724 16.6283 0.117592 16.6158C0.110445 16.6033 0.10361 16.5906 0.0970871 16.5778C0.0905501 16.5649 0.0843322 16.552 0.0784331 16.5388C0.0725342 16.5257 0.0669615 16.5125 0.0617146 16.4991C0.0564538 16.4857 0.0515189 16.4721 0.0469104 16.4585C0.0423018 16.4449 0.0380339 16.4311 0.0341057 16.4173C0.0301637 16.4034 0.0265547 16.3895 0.0232791 16.3755C0.0200178 16.3615 0.0170965 16.3474 0.0145159 16.3332C0.011935 16.319 0.00969459 16.3048 0.0077943 16.2906C0.00589433 16.2763 0.00434164 16.262 0.00313622 16.2476C0.0019308 16.2333 0.00107299 16.2189 0.000562462 16.2045C5.19296e-05 16.1901 -0.000110999 16.1758 7.33505e-05 16.1614L7.33505e-05 11.9032C7.33505e-05 11.8909 0.000378112 11.8786 0.00098796 11.8664C0.00158352 11.8541 0.00248386 11.8418 0.00368927 11.8296C0.00489437 11.8173 0.00639771 11.8051 0.00819837 11.793C0.0100136 11.7808 0.0121194 11.7687 0.0145159 11.7566C0.0169121 11.7446 0.0196066 11.7326 0.0225984 11.7206C0.0255763 11.7087 0.0288521 11.6969 0.0324253 11.6851C0.0359988 11.6733 0.0398559 11.6616 0.0439966 11.6501C0.0481371 11.6385 0.0525615 11.627 0.0572691 11.6157C0.0619768 11.6043 0.0669615 11.5931 0.0722223 11.5819C0.0774831 11.5708 0.0830064 11.5598 0.0887917 11.549C0.0945915 11.5382 0.100654 11.5275 0.106978 11.5169C0.113302 11.5064 0.119882 11.496 0.126717 11.4857C0.133552 11.4755 0.140628 11.4655 0.147944 11.4556C0.155276 11.4457 0.162841 11.436 0.17064 11.4265C0.178439 11.417 0.186472 11.4077 0.194739 11.3986C0.202992 11.3895 0.211465 11.3806 0.220156 11.3719C0.228864 11.3632 0.237768 11.3547 0.246872 11.3464C0.255991 11.3382 0.265301 11.3302 0.2748 11.3223C0.284316 11.3145 0.294007 11.307 0.303876 11.2996C0.313761 11.2923 0.323815 11.2852 0.334038 11.2784C0.344262 11.2716 0.354649 11.265 0.365199 11.2587C0.375751 11.2524 0.386448 11.2463 0.397296 11.2405C0.408131 11.2347 0.419106 11.2292 0.430222 11.2239C0.44134 11.2187 0.452586 11.2137 0.463957 11.209C0.475317 11.2043 0.48678 11.1998 0.498351 11.1957C0.509937 11.1916 0.521614 11.1877 0.533383 11.1841C0.545154 11.1806 0.557002 11.1773 0.568926 11.1743C0.580852 11.1713 0.592849 11.1686 0.604915 11.1662C0.616969 11.1638 0.629078 11.1617 0.641245 11.1599C0.653412 11.1581 0.665614 11.1566 0.677851 11.1554C0.69009 11.1542 0.702355 11.1533 0.714649 11.1527C0.72693 11.1521 0.739216 11.1518 0.75151 11.1518L2.29794 11.1518C2.31185 11.1518 2.32574 11.1514 2.33963 11.1508C2.35352 11.1501 2.36737 11.1491 2.38119 11.1477C2.39504 11.1463 2.40884 11.1446 2.42258 11.1426C2.43635 11.1405 2.45004 11.1382 2.46366 11.1355C2.47731 11.1327 2.49086 11.1297 2.50435 11.1263C2.51783 11.1229 2.53123 11.1192 2.54453 11.1152C2.55784 11.1112 2.57103 11.1068 2.58411 11.1021C2.59721 11.0974 2.61017 11.0924 2.62301 11.0871C2.63586 11.0818 2.64858 11.0762 2.66113 11.0702C2.6737 11.0643 2.68612 11.058 2.69837 11.0515C2.71063 11.0449 2.72273 11.0381 2.73464 11.0309C2.74657 11.0238 2.75831 11.0163 2.76986 11.0086C2.78144 11.0009 2.79279 10.9929 2.80396 10.9846C2.81513 10.9763 2.82608 10.9678 2.83682 10.959C2.84759 10.9501 2.85809 10.9411 2.86839 10.9317C2.8787 10.9224 2.88877 10.9128 2.89859 10.903C2.90842 10.8932 2.91801 10.8831 2.92735 10.8728C2.93669 10.8625 2.94577 10.852 2.95458 10.8412C2.9634 10.8305 2.97195 10.8195 2.98023 10.8083C2.98852 10.7972 2.99652 10.7858 3.00424 10.7743C3.01196 10.7627 3.01939 10.751 3.02653 10.739C3.03368 10.7271 3.04053 10.715 3.04708 10.7028C3.05365 10.6905 3.05991 10.6781 3.06584 10.6655C3.0718 10.6529 3.07741 10.6402 3.08273 10.6274C3.08805 10.6146 3.09305 10.6016 3.09773 10.5885C3.10243 10.5754 3.10679 10.5622 3.11081 10.5489C3.11485 10.5356 3.11857 10.5222 3.12193 10.5087C3.12531 10.4952 3.12835 10.4817 3.13108 10.468C3.1338 10.4544 3.13616 10.4407 3.1382 10.427C3.14024 10.4132 3.14195 10.3994 3.14331 10.3856C3.14467 10.3718 3.14569 10.3579 3.14637 10.344C3.14705 10.3301 3.14739 10.3162 3.14739 10.3023L3.14739 9.49644C3.14758 9.48242 3.14741 9.46842 3.14688 9.45441C3.14637 9.44039 3.14552 9.42641 3.14431 9.41244C3.14312 9.39849 3.14156 9.38455 3.13965 9.37066C3.13778 9.35677 3.13554 9.34295 3.13295 9.32917C3.13038 9.3154 3.12746 9.30168 3.12419 9.28805C3.12093 9.27442 3.11734 9.26089 3.1134 9.24742C3.10949 9.23398 3.10521 9.22064 3.10062 9.20739C3.09605 9.19414 3.09113 9.18102 3.08588 9.16802C3.08065 9.15503 3.07509 9.14216 3.0692 9.12944C3.06333 9.1167 3.05716 9.10413 3.05065 9.09173C3.04417 9.0793 3.03736 9.06705 3.03023 9.05497C3.02313 9.04289 3.01575 9.031 3.00805 9.01928C3.00035 9.00756 2.99237 8.99603 2.98412 8.98471C2.97587 8.9734 2.96732 8.9623 2.95849 8.95138C2.94968 8.94049 2.94062 8.92982 2.93126 8.91937C2.92193 8.90893 2.91233 8.8987 2.90249 8.88872C2.89264 8.87875 2.88255 8.86903 2.87222 8.85956C2.86188 8.85009 2.85133 8.84088 2.84055 8.83193C2.82976 8.82297 2.81877 8.81427 2.80753 8.80587C2.79632 8.79747 2.7849 8.78935 2.77329 8.7815C2.76168 8.77365 2.74987 8.76612 2.73787 8.75887C2.7259 8.75161 2.71373 8.74464 2.7014 8.73798C2.68906 8.73132 2.67657 8.72498 2.66392 8.71894C2.65128 8.7129 2.63848 8.70718 2.62555 8.70178C2.61261 8.69637 2.59955 8.69129 2.58637 8.68655C2.5732 8.68178 2.55991 8.67736 2.54648 8.67325C2.53308 8.66915 2.5196 8.66538 2.50601 8.66196C2.49241 8.65853 2.47874 8.65543 2.465 8.65266C2.45126 8.64992 2.43747 8.64749 2.4236 8.64543C2.40974 8.64337 2.39583 8.64162 2.38187 8.64024C2.36794 8.63886 2.35397 8.63784 2.33997 8.63714C2.32597 8.63643 2.31196 8.63609 2.29794 8.63609L0.75151 8.63609C0.739216 8.63609 0.72693 8.6358 0.714649 8.63518C0.702355 8.63458 0.69009 8.63369 0.677851 8.63248C0.665614 8.63126 0.653412 8.62978 0.641245 8.62797C0.629078 8.62616 0.616969 8.62405 0.604915 8.62165C0.592849 8.61925 0.580852 8.61657 0.568926 8.61357C0.557002 8.61059 0.545154 8.60732 0.533383 8.60374C0.521614 8.60017 0.509937 8.59632 0.498351 8.59217C0.48678 8.58802 0.475317 8.5836 0.463957 8.5789C0.452586 8.5742 0.44134 8.5692 0.430222 8.56394C0.419106 8.55869 0.408122 8.55316 0.397274 8.54737C0.386441 8.54157 0.375751 8.53551 0.365199 8.52919C0.354649 8.52287 0.344262 8.51628 0.334038 8.50945C0.323815 8.50262 0.313761 8.49554 0.303876 8.48822C0.294007 8.48088 0.284316 8.47333 0.2748 8.46553C0.265301 8.45772 0.255991 8.4497 0.246872 8.44143C0.237768 8.43317 0.228864 8.42471 0.220156 8.41601C0.211465 8.40731 0.202992 8.3984 0.194739 8.38929C0.186472 8.38017 0.178439 8.37087 0.17064 8.36137C0.162841 8.35186 0.155276 8.34216 0.147944 8.33229C0.140628 8.3224 0.133552 8.31236 0.126717 8.30213C0.119882 8.2919 0.113302 8.28152 0.106978 8.27097C0.100654 8.26042 0.0945915 8.24972 0.0887917 8.23889C0.0830064 8.22804 0.0774831 8.21707 0.0722223 8.20594C0.0669615 8.19482 0.0619768 8.18359 0.0572691 8.17221C0.0525615 8.16085 0.0481371 8.14939 0.0439966 8.13781C0.0398559 8.12622 0.0359988 8.11454 0.0324253 8.10278C0.0288521 8.09102 0.0255763 8.07917 0.0225984 8.06724C0.0196066 8.05531 0.0169121 8.04331 0.0145159 8.03125C0.0121194 8.01919 0.0100136 8.00709 0.00819837 7.99492C0.00639771 7.98275 0.00489437 7.97054 0.00368927 7.95831C0.00248386 7.94608 0.00158352 7.93381 0.00098796 7.92152C0.000378112 7.90924 7.33505e-05 7.89695 7.33505e-05 7.88466L7.33505e-05 3.76808C5.90698e-05 3.75381 0.000392393 3.73954 0.00107299 3.72526C0.00175359 3.71099 0.00276752 3.69676 0.00411477 3.68255C0.00547596 3.66832 0.00717763 3.65416 0.00921943 3.64001C0.0112616 3.62589 0.0136367 3.61181 0.0163451 3.59779C0.0190536 3.58377 0.0221022 3.56982 0.0254912 3.55595C0.0288664 3.54206 0.0325815 3.52828 0.0366369 3.51458C0.0406784 3.5009 0.0450459 3.48731 0.0497394 3.47383C0.0544331 3.46032 0.0594527 3.44696 0.064799 3.43371C0.0701304 3.42046 0.0757813 3.40736 0.0817512 3.39438C0.0877069 3.38141 0.0939817 3.36858 0.100575 3.35593C0.107155 3.34325 0.114033 3.33074 0.121208 3.31838C0.128397 3.30605 0.13587 3.29388 0.143627 3.28191C0.151398 3.26993 0.159445 3.25813 0.167768 3.24653C0.176107 3.23494 0.184714 3.22354 0.193591 3.21235C0.202468 3.20116 0.211607 3.19019 0.221007 3.17945C0.230409 3.1687 0.240065 3.15818 0.249977 3.1479C0.259889 3.13763 0.270035 3.12759 0.280415 3.11778C0.29081 3.10798 0.30143 3.09845 0.312278 3.08915C0.323126 3.07986 0.334187 3.07084 0.34546 3.06208C0.356748 3.05333 0.368234 3.04485 0.37992 3.03664C0.391604 3.02843 0.403479 3.02051 0.415546 3.01288C0.427614 3.00524 0.439858 2.99788 0.452279 2.99084C0.464701 2.9838 0.477287 2.97706 0.490034 2.97061C0.502769 2.96417 0.515659 2.95802 0.528704 2.95219C0.541736 2.94637 0.554902 2.94086 0.568203 2.93567C0.581505 2.93046 0.594927 2.92558 0.608468 2.92103C0.621995 2.91648 0.63563 2.91227 0.64937 2.90838C0.663111 2.90448 0.676937 2.90091 0.690847 2.89768C0.704758 2.89444 0.718735 2.89155 0.732771 2.88898C0.746825 2.8864 0.760927 2.88419 0.775078 2.8823C0.789244 2.88041 0.80344 2.87888 0.817661 2.87766C0.8319 2.87645 0.846151 2.8756 0.860415 2.87507L4.6176 2.87507L4.6176 2.17808C4.6176 2.14243 4.61847 2.1068 4.62021 2.0712C4.62198 2.03561 4.62459 2.00007 4.62808 1.96459C4.63159 1.92911 4.63595 1.89375 4.64116 1.85849C4.6464 1.82323 4.6525 1.78812 4.65946 1.75316C4.66641 1.7182 4.67422 1.68343 4.68288 1.64885C4.69155 1.61427 4.70104 1.57992 4.71138 1.54582C4.72174 1.5117 4.73292 1.47786 4.74492 1.4443C4.75694 1.41075 4.76976 1.3775 4.7834 1.34456C4.79705 1.31163 4.8115 1.27905 4.82673 1.24682C4.84196 1.21461 4.85797 1.18278 4.87478 1.15134C4.89158 1.1199 4.90915 1.0889 4.92748 1.05833C4.94582 1.02775 4.96488 0.997649 4.98468 0.968013C5.00448 0.938362 5.02501 0.909221 5.04624 0.880592C5.06746 0.851962 5.08939 0.82387 5.112 0.796319C5.13461 0.768767 5.15788 0.741781 5.18183 0.715364C5.20579 0.688961 5.23035 0.663151 5.25554 0.63794C5.28076 0.612741 5.30656 0.588174 5.33296 0.564238C5.35938 0.540288 5.38637 0.517011 5.41392 0.494408C5.44148 0.471791 5.46956 0.449867 5.49819 0.42864C5.52682 0.407397 5.55596 0.38688 5.58561 0.367083C5.61526 0.347274 5.64536 0.328208 5.67592 0.309887C5.70651 0.291552 5.7375 0.273983 5.76894 0.25718C5.80038 0.240376 5.83222 0.224353 5.86442 0.209108C5.89667 0.193879 5.92923 0.179444 5.96216 0.165802C5.99511 0.152161 6.02835 0.139335 6.06189 0.127324C6.09546 0.115313 6.1293 0.104132 6.16342 0.0937809C6.19754 0.0834435 6.23187 0.0739427 6.26645 0.0652786C6.30104 0.0566146 6.33579 0.0488082 6.37076 0.0418598C6.40573 0.0348974 6.44083 0.0288 6.47609 0.0235673C6.51136 0.018335 6.54671 0.0139746 6.58219 0.0104862C6.61767 0.00699783 6.65321 0.00437458 6.6888 0.0026161C6.7244 0.000872092 6.76003 0 6.79568 0L7.51445 0C7.55009 0 7.58572 0.000872092 7.62133 0.0026161C7.65694 0.00437458 7.69246 0.00699783 7.72794 0.0104862C7.76341 0.0139746 7.79879 0.018335 7.83403 0.0235673C7.8693 0.0288 7.90442 0.0348974 7.93936 0.0418598C7.97433 0.0488082 8.00911 0.0566146 8.04367 0.0652786C8.07826 0.0739427 8.11261 0.0834435 8.14671 0.0937809C8.18082 0.104132 8.21466 0.115313 8.24823 0.127324C8.28179 0.139335 8.31504 0.152161 8.34797 0.165802C8.38089 0.179444 8.41348 0.193879 8.4457 0.209108C8.47793 0.224353 8.50975 0.240376 8.54119 0.25718C8.57262 0.273983 8.60363 0.291552 8.6342 0.309887C8.66479 0.328208 8.69488 0.347266 8.72451 0.367062C8.75416 0.386871 8.78331 0.407397 8.81194 0.42864C8.84056 0.449867 8.86866 0.471791 8.89621 0.494408C8.92377 0.517011 8.95075 0.540288 8.97716 0.564238C9.00358 0.588174 9.02938 0.612741 9.05459 0.63794C9.07979 0.663151 9.10436 0.688961 9.12829 0.715364C9.15224 0.741781 9.17553 0.768767 9.19812 0.796319C9.22075 0.82387 9.24266 0.851962 9.26389 0.880592C9.28514 0.909221 9.30566 0.938362 9.32544 0.968013C9.34527 0.997649 9.36433 1.02775 9.38264 1.05833C9.40097 1.0889 9.41854 1.1199 9.43535 1.15134C9.45215 1.18278 9.46819 1.21461 9.48342 1.24682C9.49865 1.27905 9.51309 1.31163 9.52672 1.34456C9.54038 1.3775 9.55321 1.41075 9.5652 1.4443C9.57722 1.47786 9.58841 1.5117 9.59875 1.54582C9.60908 1.57992 9.61859 1.61427 9.62725 1.64885C9.63593 1.68343 9.64373 1.7182 9.65067 1.75316C9.65764 1.78812 9.66373 1.82323 9.66896 1.85849C9.67419 1.89375 9.67855 1.92911 9.68204 1.96459C9.68553 2.00007 9.68817 2.03561 9.68991 2.0712C9.69166 2.1068 9.69253 2.14243 9.69253 2.17808L9.69253 2.87507L13.319 2.87507C13.3337 2.87507 13.3483 2.87543 13.3628 2.87615C13.3775 2.87685 13.392 2.87794 13.4066 2.87936C13.4211 2.88079 13.4356 2.88258 13.4501 2.88472C13.4645 2.88687 13.4789 2.88938 13.4933 2.89223C13.5076 2.89508 13.5218 2.89827 13.536 2.90183C13.5502 2.90538 13.5643 2.90929 13.5783 2.91352C13.5922 2.91776 13.6061 2.92235 13.6199 2.92727C13.6336 2.93218 13.6473 2.93745 13.6608 2.94305C13.6743 2.94864 13.6876 2.95455 13.7009 2.96081C13.7141 2.96706 13.7271 2.97363 13.74 2.9805C13.7529 2.9874 13.7656 2.99461 13.7781 3.00212C13.7907 3.00962 13.803 3.01745 13.8152 3.02558C13.8273 3.03368 13.8393 3.0421 13.851 3.0508C13.8627 3.0595 13.8743 3.0685 13.8855 3.07777C13.8969 3.08705 13.9079 3.0966 13.9187 3.1064C13.9296 3.11621 13.9401 3.12629 13.9505 3.13663C13.9608 3.14697 13.9709 3.15754 13.9807 3.16836C13.9905 3.17919 14.0001 3.19027 14.0093 3.20157C14.0186 3.21286 14.0276 3.22437 14.0363 3.23611C14.045 3.24785 14.0534 3.25981 14.0615 3.27195C14.0697 3.2841 14.0775 3.29645 14.085 3.30898C14.0925 3.32151 14.0997 3.33423 14.1066 3.34712C14.1135 3.36001 14.1201 3.37307 14.1263 3.38628C14.1326 3.39949 14.1385 3.41282 14.1441 3.42633C14.1497 3.43984 14.1549 3.45347 14.1598 3.46723C14.1648 3.481 14.1694 3.49486 14.1736 3.50886C14.1778 3.52283 14.1817 3.53692 14.1853 3.5511C14.1888 3.56527 14.192 3.57952 14.1949 3.59386C14.1977 3.60819 14.2002 3.62259 14.2024 3.63706C14.2045 3.6515 14.2063 3.666 14.2077 3.68055C14.2092 3.6951 14.2103 3.70967 14.211 3.72426C14.2117 3.73886 14.212 3.75347 14.212 3.76808L14.212 7.44904L14.8219 7.44904C14.8576 7.44904 14.8932 7.44991 14.9288 7.45166C14.9644 7.45342 14.9999 7.45604 15.0354 7.45953C15.0709 7.46301 15.1063 7.46737 15.1415 7.47261C15.1768 7.47784 15.2119 7.48394 15.2468 7.4909C15.2818 7.49785 15.3166 7.50566 15.3511 7.51432C15.3857 7.52297 15.4201 7.53248 15.4542 7.54282C15.4883 7.55318 15.5221 7.56435 15.5557 7.57636C15.5893 7.58838 15.6225 7.60121 15.6554 7.61484C15.6884 7.62848 15.7209 7.64292 15.7532 7.65815C15.7854 7.6734 15.8172 7.68941 15.8486 7.70622C15.8801 7.72302 15.9111 7.74059 15.9417 7.75893C15.9723 7.77724 16.0023 7.7963 16.032 7.8161C16.0616 7.8359 16.0908 7.85643 16.1194 7.87768C16.148 7.89891 16.1761 7.92084 16.2037 7.94345C16.2312 7.96606 16.2582 7.98933 16.2846 8.01328C16.311 8.03721 16.3368 8.06177 16.3621 8.08698C16.3873 8.11218 16.4118 8.13801 16.4358 8.1644C16.4597 8.19082 16.483 8.21781 16.5056 8.24536C16.5282 8.2729 16.5501 8.301 16.5714 8.32963C16.5926 8.35826 16.6131 8.3874 16.6329 8.41705C16.6527 8.44668 16.6718 8.4768 16.6901 8.50737C16.7084 8.53793 16.726 8.56894 16.7428 8.60038C16.7596 8.63182 16.7757 8.66364 16.7909 8.69586C16.8061 8.72809 16.8206 8.76067 16.8342 8.7936C16.8478 8.82655 16.8607 8.85979 16.8727 8.89334C16.8847 8.9269 16.8959 8.96074 16.9062 8.99486C16.9165 9.02896 16.9261 9.06331 16.9347 9.09789C16.9434 9.13246 16.9512 9.16723 16.9581 9.2022C16.9651 9.23715 16.9712 9.27227 16.9764 9.30753C16.9817 9.34278 16.986 9.37815 16.9895 9.41363C16.993 9.44911 16.9956 9.48465 16.9974 9.52026C16.9991 9.55584 17 9.59147 17 9.62712L17 10.3459C17 10.3815 16.9991 10.4172 16.9974 10.4528C16.9956 10.4884 16.993 10.5239 16.9895 10.5594C16.986 10.5949 16.9817 10.6302 16.9764 10.6655C16.9712 10.7007 16.9651 10.7359 16.9581 10.7708C16.9512 10.8058 16.9434 10.8406 16.9347 10.8751C16.9261 10.9097 16.9165 10.9441 16.9062 10.9781C16.8959 11.0123 16.8847 11.0461 16.8727 11.0797C16.8607 11.1132 16.8478 11.1465 16.8342 11.1794C16.8206 11.2123 16.8061 11.2449 16.7909 11.2771C16.7757 11.3094 16.7596 11.3412 16.7428 11.3726C16.726 11.4041 16.7084 11.4351 16.6901 11.4656C16.6718 11.4962 16.6527 11.5263 16.6329 11.556C16.6131 11.5856 16.5926 11.6147 16.5714 11.6434C16.5501 11.672 16.5282 11.7001 16.5056 11.7277C16.483 11.7552 16.4597 11.7822 16.4358 11.8086C16.4118 11.835 16.3873 11.8608 16.3621 11.886C16.3368 11.9112 16.311 11.9358 16.2846 11.9597C16.2582 11.9837 16.2312 12.007 16.2037 12.0296C16.1761 12.0522 16.148 12.0741 16.1194 12.0953C16.0908 12.1166 16.0616 12.1371 16.032 12.1569C16.0023 12.1767 15.9723 12.1958 15.9417 12.2141C15.9111 12.2324 15.8801 12.25 15.8486 12.2668C15.8172 12.2836 15.7854 12.2996 15.7532 12.3148C15.7209 12.3301 15.6884 12.3445 15.6554 12.3582C15.6225 12.3718 15.5893 12.3846 15.5557 12.3966C15.5221 12.4087 15.4883 12.4198 15.4542 12.4302C15.4201 12.4405 15.3857 12.45 15.3511 12.4587C15.3166 12.4673 15.2818 12.4752 15.2468 12.4821C15.2119 12.4891 15.1768 12.4952 15.1415 12.5004C15.1063 12.5056 15.0709 12.51 15.0354 12.5135C14.9999 12.517 14.9644 12.5196 14.9288 12.5214C14.8932 12.5231 14.8576 12.524 14.8219 12.524L14.212 12.524L14.212 16.1614C14.2122 16.1763 14.212 16.1913 14.2115 16.2062C14.2109 16.2212 14.21 16.2361 14.2087 16.251C14.2073 16.2659 14.2057 16.2808 14.2036 16.2956C14.2015 16.3104 14.1991 16.3251 14.1963 16.3398C14.1935 16.3545 14.1903 16.3692 14.1868 16.3837C14.1833 16.3982 14.1794 16.4127 14.1751 16.427C14.1708 16.4413 14.1662 16.4556 14.1612 16.4697C14.1563 16.4838 14.1509 16.4977 14.1453 16.5116C14.1396 16.5254 14.1336 16.5391 14.1272 16.5526C14.1208 16.5662 14.1141 16.5795 14.1071 16.5927C14.1 16.606 14.0927 16.619 14.085 16.6318C14.0773 16.6446 14.0693 16.6572 14.0609 16.6697C14.0526 16.6821 14.044 16.6943 14.035 16.7063C14.0261 16.7183 14.0168 16.73 14.0073 16.7416C13.9978 16.7531 13.988 16.7644 13.9779 16.7754C13.9678 16.7865 13.9574 16.7972 13.9468 16.8077C13.9361 16.8183 13.9252 16.8285 13.9141 16.8385C13.9029 16.8484 13.8915 16.8581 13.8799 16.8675C13.8682 16.8769 13.8564 16.886 13.8443 16.8948C13.8322 16.9036 13.8199 16.9121 13.8073 16.9202C13.7948 16.9284 13.7821 16.9363 13.7692 16.9438C13.7562 16.9514 13.7431 16.9586 13.7298 16.9655C13.7166 16.9723 13.7031 16.9789 13.6895 16.9851C13.6759 16.9913 13.6621 16.9972 13.6482 17.0027C13.6343 17.0082 13.6203 17.0133 13.6061 17.0182C13.592 17.023 13.5777 17.0274 13.5633 17.0315C13.5489 17.0356 13.5344 17.0393 13.5198 17.0427C13.5053 17.046 13.4906 17.049 13.4759 17.0517C13.4612 17.0543 13.4464 17.0565 13.4316 17.0584C13.4167 17.0603 13.4018 17.0618 13.3869 17.063C13.372 17.0641 13.3571 17.0648 13.3421 17.0652C13.3272 17.0656 13.3122 17.0656 13.2973 17.0653ZM9.89944 15.5733L12.6983 15.5733L12.6983 11.8052C12.6981 11.793 12.6982 11.7809 12.6986 11.7687C12.6991 11.7565 12.6998 11.7444 12.7008 11.7323C12.7019 11.7201 12.7032 11.7081 12.7049 11.696C12.7065 11.6839 12.7084 11.6719 12.7107 11.66C12.7129 11.648 12.7154 11.6361 12.7183 11.6243C12.7211 11.6124 12.7243 11.6007 12.7277 11.589C12.7311 11.5773 12.7348 11.5657 12.7388 11.5542C12.7428 11.5427 12.7471 11.5314 12.7517 11.5201C12.7562 11.5088 12.7611 11.4977 12.7662 11.4866C12.7714 11.4756 12.7768 11.4647 12.7824 11.4539C12.7881 11.4431 12.794 11.4325 12.8002 11.4221C12.8065 11.4116 12.8129 11.4013 12.8196 11.3911C12.8264 11.381 12.8333 11.371 12.8406 11.3612C12.8478 11.3514 12.8553 11.3418 12.863 11.3324C12.8707 11.323 12.8786 11.3138 12.8868 11.3047C12.8949 11.2957 12.9033 11.2869 12.9119 11.2783C12.9205 11.2697 12.9293 11.2613 12.9384 11.2531C12.9474 11.245 12.9566 11.237 12.966 11.2293C12.9755 11.2216 12.9851 11.2142 12.9949 11.2069C13.0047 11.1997 13.0146 11.1927 13.0248 11.186C13.0349 11.1793 13.0452 11.1728 13.0557 11.1666C13.0661 11.1604 13.0768 11.1545 13.0875 11.1488C13.0983 11.1431 13.1092 11.1377 13.1202 11.1326C13.1313 11.1275 13.1424 11.1226 13.1537 11.118C13.165 11.1135 13.1764 11.1092 13.1879 11.1052C13.1994 11.1012 13.211 11.0975 13.2226 11.094C13.2343 11.0906 13.2461 11.0875 13.2579 11.0846C13.2697 11.0818 13.2816 11.0793 13.2936 11.077C13.3055 11.0748 13.3176 11.0729 13.3296 11.0712C13.3417 11.0696 13.3538 11.0682 13.3659 11.0672C13.378 11.0662 13.3902 11.0654 13.4023 11.065C13.4145 11.0646 13.4267 11.0645 13.4388 11.0647L14.8001 11.0647C14.8112 11.0647 14.8222 11.0644 14.8333 11.0638C14.8443 11.0633 14.8553 11.0625 14.8663 11.0614C14.8773 11.0603 14.8883 11.059 14.8992 11.0573C14.9101 11.0557 14.921 11.0538 14.9319 11.0517C14.9427 11.0495 14.9535 11.0471 14.9642 11.0444C14.9749 11.0417 14.9856 11.0388 14.9961 11.0356C15.0067 11.0324 15.0172 11.0289 15.0276 11.0252C15.038 11.0215 15.0483 11.0175 15.0585 11.0133C15.0687 11.009 15.0788 11.0045 15.0888 10.9998C15.0988 10.9951 15.1087 10.9901 15.1184 10.9849C15.1282 10.9797 15.1378 10.9743 15.1473 10.9686C15.1567 10.9629 15.1661 10.957 15.1753 10.9509C15.1844 10.9447 15.1935 10.9384 15.2023 10.9318C15.2112 10.9252 15.2199 10.9184 15.2285 10.9114C15.237 10.9044 15.2454 10.8972 15.2536 10.8897C15.2618 10.8823 15.2698 10.8747 15.2776 10.8669C15.2854 10.8591 15.293 10.8511 15.3004 10.8429C15.3079 10.8347 15.3151 10.8263 15.3221 10.8178C15.3291 10.8093 15.3359 10.8005 15.3425 10.7917C15.3491 10.7828 15.3554 10.7738 15.3615 10.7646C15.3677 10.7554 15.3736 10.746 15.3793 10.7366C15.385 10.7271 15.3904 10.7175 15.3956 10.7077C15.4008 10.698 15.4058 10.6881 15.4105 10.6781C15.4152 10.6682 15.4197 10.6581 15.4239 10.6478C15.4282 10.6376 15.4322 10.6273 15.4359 10.6169C15.4396 10.6065 15.4431 10.596 15.4463 10.5855C15.4495 10.5749 15.4524 10.5642 15.4551 10.5535C15.4578 10.5428 15.4602 10.532 15.4624 10.5212C15.4645 10.5103 15.4664 10.4995 15.468 10.4885C15.4697 10.4776 15.471 10.4666 15.4721 10.4556C15.4732 10.4446 15.474 10.4336 15.4745 10.4226C15.4751 10.4115 15.4753 10.4005 15.4753 10.3894L15.4753 9.62712C15.4753 9.61608 15.4751 9.60502 15.4745 9.59398C15.474 9.58294 15.4732 9.57195 15.4721 9.56095C15.471 9.54995 15.4697 9.53898 15.468 9.52804C15.4664 9.51711 15.4645 9.50622 15.4624 9.49539C15.4602 9.48457 15.4578 9.47378 15.4551 9.46306C15.4524 9.45234 15.4495 9.44169 15.4463 9.43111C15.4431 9.42054 15.4396 9.41006 15.4359 9.39966C15.4322 9.38925 15.4282 9.37894 15.4239 9.36873C15.4197 9.35852 15.4152 9.34842 15.4105 9.33844C15.4058 9.32844 15.4008 9.31857 15.3956 9.30883C15.3904 9.29909 15.385 9.28948 15.3793 9.27999C15.3736 9.27052 15.3677 9.26119 15.3615 9.252C15.3554 9.24281 15.3491 9.23377 15.3425 9.2249C15.3359 9.21603 15.3291 9.20731 15.3221 9.19878C15.3151 9.19023 15.3079 9.18187 15.3004 9.17368C15.293 9.16549 15.2854 9.15749 15.2776 9.14969C15.2698 9.14188 15.2618 9.13424 15.2536 9.12682C15.2454 9.1194 15.237 9.11219 15.2285 9.10517C15.2199 9.09817 15.2112 9.09136 15.2023 9.08479C15.1935 9.07822 15.1844 9.07186 15.1753 9.06571C15.1661 9.05956 15.1567 9.05365 15.1473 9.04797C15.1378 9.04229 15.1282 9.03685 15.1184 9.03164C15.1087 9.02643 15.0988 9.02147 15.0888 9.01675C15.0788 9.01202 15.0687 9.00754 15.0585 9.0033C15.0483 8.99907 15.038 8.99512 15.0276 8.99139C15.0172 8.98767 15.0067 8.9842 14.9961 8.98099C14.9856 8.97778 14.9749 8.97484 14.9642 8.97214C14.9535 8.96946 14.9427 8.96704 14.9319 8.96489C14.921 8.96274 14.9101 8.96085 14.8992 8.95923C14.8883 8.95759 14.8773 8.95625 14.8663 8.95517C14.8553 8.95408 14.8443 8.95326 14.8333 8.95272C14.8222 8.95219 14.8112 8.95191 14.8001 8.95191L13.4388 8.95191C13.4266 8.95191 13.4144 8.95162 13.4022 8.95102C13.3899 8.95041 13.3777 8.94951 13.3656 8.9483C13.3534 8.94709 13.3413 8.94558 13.3292 8.94377C13.3171 8.94196 13.305 8.93983 13.293 8.93743C13.281 8.93503 13.2691 8.93233 13.2572 8.92933C13.2454 8.92633 13.2336 8.92303 13.2219 8.91946C13.2102 8.91586 13.1986 8.91199 13.1871 8.90784C13.1756 8.9037 13.1642 8.89925 13.1529 8.89453C13.1416 8.88981 13.1305 8.88481 13.1194 8.87953C13.1084 8.87426 13.0975 8.86871 13.0867 8.86288C13.0759 8.85707 13.0653 8.85099 13.0549 8.84465C13.0444 8.83831 13.0341 8.83172 13.024 8.82487C13.0138 8.818 13.0039 8.81089 12.9941 8.80355C12.9843 8.79622 12.9747 8.78862 12.9653 8.78082C12.9559 8.77299 12.9467 8.76493 12.9377 8.75665C12.9287 8.74838 12.9199 8.73989 12.9113 8.73117C12.9027 8.72247 12.8943 8.71354 12.8862 8.70441C12.8781 8.69529 12.8701 8.68595 12.8624 8.67644C12.8548 8.66693 12.8473 8.65722 12.8401 8.64732C12.8329 8.63743 12.826 8.62737 12.8193 8.61714C12.8126 8.60691 12.8061 8.59651 12.7999 8.58596C12.7938 8.57541 12.7878 8.56471 12.7822 8.55386C12.7765 8.54301 12.7711 8.53204 12.766 8.52092C12.7609 8.50979 12.756 8.49856 12.7515 8.48722C12.7469 8.47586 12.7427 8.4644 12.7387 8.45285C12.7347 8.44128 12.731 8.42962 12.7276 8.41786C12.7242 8.40612 12.7211 8.39429 12.7182 8.38238C12.7154 8.37049 12.7129 8.35852 12.7106 8.3465C12.7084 8.33448 12.7065 8.3224 12.7048 8.31027C12.7032 8.29815 12.7019 8.28598 12.7008 8.2738C12.6998 8.26161 12.6991 8.2494 12.6986 8.23717C12.6982 8.22494 12.6981 8.21271 12.6983 8.20048L12.6983 4.37794L8.9302 4.37794C8.9179 4.37794 8.90563 4.37765 8.89334 4.37703C8.88104 4.37643 8.86879 4.37554 8.85654 4.37433C8.84431 4.37312 8.8321 4.37163 8.81993 4.36982C8.80777 4.36801 8.79566 4.3659 8.7836 4.3635C8.77154 4.3611 8.75955 4.35842 8.74761 4.35542C8.7357 4.35244 8.72386 4.34916 8.71207 4.34559C8.70031 4.34202 8.68863 4.33817 8.67704 4.33402C8.66547 4.32987 8.654 4.32545 8.64264 4.32075C8.63129 4.31605 8.62003 4.31105 8.60891 4.3058C8.59781 4.30054 8.58683 4.29501 8.57598 4.28923C8.56514 4.28342 8.55444 4.27736 8.54389 4.27104C8.53334 4.26472 8.52296 4.25813 8.51273 4.2513C8.50252 4.24447 8.49245 4.23739 8.48256 4.23007C8.47269 4.22273 8.46302 4.21518 8.45349 4.20738C8.444 4.19957 8.43468 4.19155 8.42556 4.18328C8.41646 4.17502 8.40757 4.16656 8.39884 4.15786C8.39017 4.14916 8.38168 4.14025 8.37343 4.13114C8.36517 4.12202 8.35713 4.11272 8.34933 4.10322C8.34154 4.09371 8.33397 4.08401 8.32663 4.07414C8.31931 4.06425 8.31225 4.05421 8.3054 4.04398C8.29858 4.03375 8.292 4.02337 8.28566 4.01282C8.27935 4.00227 8.27329 3.99157 8.2675 3.98074C8.26171 3.96989 8.25618 3.95892 8.25091 3.94779C8.24566 3.93667 8.24068 3.92544 8.23596 3.91406C8.23126 3.9027 8.22683 3.89124 8.22268 3.87967C8.21856 3.86807 8.21469 3.8564 8.21111 3.84463C8.20756 3.83287 8.20428 3.82102 8.20129 3.80909C8.19831 3.79716 8.19561 3.78516 8.1932 3.7731C8.19082 3.76104 8.18871 3.74894 8.18689 3.73677C8.1851 3.7246 8.18359 3.7124 8.18238 3.70017C8.18118 3.68793 8.18027 3.67566 8.17968 3.66337C8.17908 3.65109 8.17876 3.6388 8.17876 3.62651L8.17876 2.17808C8.17876 2.16704 8.1785 2.15598 8.17795 2.14494C8.17742 2.1339 8.17661 2.1229 8.17551 2.11191C8.17444 2.10091 8.17308 2.08994 8.17144 2.079C8.16983 2.06807 8.16795 2.05719 8.16578 2.04635C8.16364 2.03552 8.16121 2.02474 8.15853 2.01402C8.15585 2.0033 8.15289 1.99265 8.14968 1.98208C8.14649 1.9715 8.14303 1.96101 8.13928 1.95062C8.13558 1.94021 8.1316 1.9299 8.12737 1.91969C8.12314 1.90948 8.11865 1.89938 8.11393 1.8894C8.10921 1.8794 8.10425 1.86953 8.09904 1.85979C8.09383 1.85005 8.08838 1.84044 8.0827 1.83095C8.07702 1.82148 8.07111 1.81215 8.06496 1.80296C8.05884 1.79377 8.05248 1.78474 8.04588 1.77586C8.03931 1.76698 8.03251 1.75828 8.02549 1.74974C8.01849 1.74119 8.01128 1.73282 8.00385 1.72464C7.99643 1.71646 7.98882 1.70846 7.98099 1.70065C7.97318 1.69284 7.96518 1.68521 7.957 1.67778C7.94881 1.67037 7.94045 1.66315 7.9319 1.65615C7.92337 1.64913 7.91467 1.64233 7.90578 1.63575C7.89691 1.62917 7.88787 1.62281 7.87868 1.61667C7.86949 1.61053 7.86017 1.60462 7.85069 1.59893C7.8412 1.59326 7.83159 1.58782 7.82184 1.5826C7.8121 1.57739 7.80223 1.57243 7.79224 1.56771C7.78226 1.56299 7.77216 1.5585 7.76195 1.55427C7.75174 1.55004 7.74144 1.54607 7.73102 1.54235C7.72062 1.53863 7.71013 1.53516 7.69956 1.53195C7.68899 1.52875 7.67833 1.5258 7.66761 1.5231C7.65689 1.52042 7.64613 1.51801 7.63528 1.51585C7.62446 1.5137 7.61356 1.51181 7.60263 1.51019C7.5917 1.50856 7.58074 1.50721 7.56973 1.50613C7.55875 1.50504 7.54773 1.50422 7.53669 1.50368C7.52565 1.50315 7.51462 1.50288 7.50355 1.50288L6.78479 1.50288C6.77375 1.50288 6.76271 1.50315 6.75165 1.50368C6.74063 1.50422 6.72961 1.50504 6.71862 1.50613C6.70762 1.50721 6.69664 1.50856 6.68571 1.51019C6.67478 1.51181 6.66391 1.5137 6.65306 1.51585C6.64223 1.51801 6.63145 1.52042 6.62073 1.5231C6.61001 1.5258 6.59937 1.52875 6.58878 1.53195C6.57821 1.53516 6.56772 1.53863 6.55732 1.54235C6.54692 1.54607 6.53661 1.55004 6.5264 1.55427C6.51619 1.5585 6.5061 1.56299 6.49611 1.56771C6.48611 1.57243 6.47624 1.57739 6.4665 1.5826C6.45676 1.58782 6.44714 1.59326 6.43766 1.59893C6.42819 1.60462 6.41885 1.61053 6.40966 1.61667C6.40048 1.62281 6.39146 1.62917 6.38257 1.63575C6.3737 1.64233 6.365 1.64913 6.35645 1.65615C6.3479 1.66315 6.33954 1.67037 6.33135 1.67778C6.32318 1.68521 6.31518 1.69284 6.30735 1.70065C6.29955 1.70846 6.29193 1.71646 6.28449 1.72464C6.27709 1.73282 6.26988 1.74119 6.26286 1.74974C6.25584 1.75828 6.24905 1.76698 6.24246 1.77586C6.23589 1.78474 6.22953 1.79377 6.22338 1.80296C6.21725 1.81215 6.21134 1.82148 6.20564 1.83095C6.19998 1.84044 6.19454 1.85005 6.1893 1.85979C6.18411 1.86953 6.17914 1.8794 6.17441 1.8894C6.16969 1.89938 6.16523 1.90948 6.16097 1.91969C6.15676 1.9299 6.15278 1.94021 6.14906 1.95062C6.14534 1.96101 6.14187 1.9715 6.13866 1.98208C6.13547 1.99265 6.13251 2.0033 6.12981 2.01402C6.12713 2.02474 6.12473 2.03552 6.12256 2.04635C6.12041 2.05719 6.11852 2.06807 6.1169 2.079C6.11528 2.08994 6.11392 2.10091 6.11284 2.11191C6.11175 2.1229 6.11094 2.1339 6.11039 2.14494C6.10986 2.15598 6.10958 2.16704 6.10958 2.17808L6.10958 3.62651C6.10958 3.63869 6.10928 3.65086 6.10869 3.66305C6.10811 3.67521 6.10722 3.68736 6.10603 3.69948C6.10486 3.71161 6.10339 3.72371 6.10161 3.73577C6.09984 3.74783 6.09778 3.75983 6.09542 3.77178C6.09308 3.78374 6.09042 3.79563 6.08748 3.80745C6.08457 3.81928 6.08136 3.83102 6.07783 3.8427C6.07434 3.85437 6.07055 3.86595 6.06647 3.87743C6.06243 3.88892 6.05809 3.9003 6.05345 3.91157C6.04883 3.92284 6.04394 3.93401 6.03877 3.94505C6.03361 3.95609 6.02818 3.96698 6.02248 3.97776C6.01678 3.98853 6.01082 3.99916 6.00461 4.00965C5.9984 4.02013 5.99196 4.03045 5.98524 4.04062C5.97851 4.05079 5.97156 4.06078 5.96435 4.07061C5.95716 4.08046 5.94974 4.09009 5.94206 4.09956C5.9344 4.10902 5.92649 4.11832 5.91836 4.1274C5.91026 4.13648 5.90192 4.14535 5.89335 4.15403C5.8848 4.16271 5.87606 4.17118 5.86708 4.17943C5.85812 4.18768 5.84896 4.19572 5.8396 4.20353C5.83024 4.21133 5.82071 4.21891 5.81097 4.22624C5.80127 4.23358 5.79138 4.24069 5.7813 4.24756C5.77121 4.25443 5.76098 4.26104 5.7506 4.2674C5.74022 4.27376 5.72967 4.27987 5.71897 4.28572C5.7083 4.29156 5.69747 4.29716 5.68649 4.30248C5.67556 4.30782 5.66448 4.31286 5.65325 4.31764C5.64206 4.32243 5.63074 4.32694 5.6193 4.33117C5.6079 4.3354 5.59637 4.33936 5.58474 4.34304C5.57312 4.34672 5.56143 4.3501 5.54964 4.35321C5.53786 4.35631 5.52601 4.35914 5.51408 4.36167C5.50217 4.3642 5.49021 4.36644 5.47817 4.36837C5.46613 4.37031 5.45407 4.37197 5.44195 4.37333C5.42985 4.37469 5.41772 4.37575 5.40556 4.37652C5.39339 4.37731 5.38122 4.37777 5.36903 4.37794L1.49206 4.37794L1.49206 7.14411L2.29794 7.14411C2.33633 7.1443 2.37468 7.1454 2.41301 7.14745C2.45134 7.14951 2.48961 7.15249 2.52777 7.15642C2.56597 7.16036 2.60402 7.16521 2.64197 7.17101C2.67991 7.1768 2.71771 7.18352 2.75532 7.19116C2.79292 7.19879 2.83034 7.20737 2.86752 7.21683C2.90474 7.2263 2.94169 7.23668 2.97836 7.24795C3.01505 7.25924 3.05144 7.27141 3.08754 7.28447C3.12363 7.29753 3.15939 7.31146 3.19478 7.32627C3.2302 7.34109 3.26523 7.35675 3.29986 7.37327C3.33453 7.3898 3.36875 7.40718 3.40253 7.42539C3.43633 7.44357 3.46966 7.46259 3.5025 7.48243C3.53538 7.50226 3.56774 7.52289 3.59958 7.54431C3.63144 7.56573 3.66275 7.58791 3.69351 7.61086C3.72429 7.63381 3.75447 7.65749 3.78408 7.68193C3.81368 7.70637 3.84268 7.73149 3.87105 7.75733C3.89943 7.78317 3.92716 7.80972 3.95424 7.83692C3.98134 7.86413 4.00773 7.89197 4.03343 7.92047C4.05917 7.94896 4.08416 7.97807 4.10845 8.00779C4.13274 8.0375 4.15629 8.06781 4.17909 8.09868C4.20189 8.12956 4.22393 8.16098 4.2452 8.19293C4.26647 8.22487 4.28695 8.25733 4.30662 8.29028C4.32632 8.32323 4.34519 8.35666 4.36322 8.39055C4.38126 8.42443 4.39847 8.45872 4.41483 8.49343C4.4312 8.52817 4.44673 8.56326 4.46137 8.59874C4.47602 8.63422 4.48978 8.67004 4.50267 8.7062C4.51556 8.74234 4.52758 8.7788 4.53868 8.81553C4.54979 8.85226 4.56 8.88925 4.56929 8.9265C4.57861 8.96374 4.58699 9.0012 4.59443 9.03885C4.60192 9.0765 4.60845 9.11431 4.61407 9.15228C4.61968 9.19025 4.62438 9.22834 4.62813 9.26655C4.63187 9.30475 4.6347 9.34301 4.63657 9.38134C4.63844 9.41969 4.63938 9.45804 4.63938 9.49644L4.63938 10.3023C4.63938 10.3407 4.63844 10.3791 4.63657 10.4174C4.6347 10.4557 4.63187 10.494 4.62813 10.5322C4.62438 10.5704 4.61968 10.6085 4.61407 10.6465C4.60845 10.6844 4.60192 10.7223 4.59445 10.7599C4.58699 10.7976 4.57861 10.835 4.56929 10.8722C4.56002 10.9095 4.54981 10.9465 4.53868 10.9832C4.52758 11.02 4.51558 11.0564 4.50267 11.0926C4.48978 11.1287 4.47602 11.1645 4.46137 11.2C4.44673 11.2355 4.43123 11.2706 4.41485 11.3053C4.39849 11.34 4.38128 11.3743 4.36322 11.4082C4.34519 11.4421 4.32634 11.4755 4.30665 11.5085C4.28697 11.5414 4.26649 11.5739 4.24522 11.6058C4.22395 11.6378 4.20191 11.6692 4.17909 11.7001C4.15629 11.7309 4.13274 11.7612 4.10845 11.791C4.08416 11.8207 4.05917 11.8498 4.03345 11.8783C4.00773 11.9068 3.98134 11.9346 3.95426 11.9618C3.92718 11.989 3.89945 12.0156 3.87107 12.0414C3.8427 12.0673 3.81371 12.0924 3.7841 12.1168C3.75449 12.1413 3.72431 12.1649 3.69353 12.1879C3.66277 12.2108 3.63146 12.233 3.5996 12.2545C3.56774 12.2759 3.53538 12.2965 3.50252 12.3163C3.46966 12.3362 3.43633 12.3552 3.40253 12.3734C3.36875 12.3916 3.33453 12.4089 3.29988 12.4255C3.26525 12.442 3.23022 12.4577 3.19478 12.4725C3.15939 12.4873 3.12363 12.5012 3.08754 12.5143C3.05146 12.5274 3.01507 12.5395 2.97836 12.5508C2.94169 12.5621 2.90474 12.5725 2.86754 12.5819C2.83034 12.5914 2.79292 12.6 2.75532 12.6076C2.71771 12.6152 2.67991 12.622 2.64197 12.6277C2.60402 12.6336 2.56597 12.6384 2.52779 12.6423C2.48961 12.6463 2.45134 12.6493 2.41301 12.6513C2.37468 12.6534 2.33633 12.6545 2.29794 12.6547L1.49206 12.6547L1.49206 15.5733L4.3889 15.5733L4.3889 14.6694C4.38909 14.631 4.3902 14.5926 4.39224 14.5543C4.3943 14.516 4.3973 14.4777 4.40121 14.4396C4.40515 14.4014 4.41002 14.3633 4.41581 14.3254C4.42159 14.2874 4.42831 14.2496 4.43595 14.212C4.44361 14.1744 4.45216 14.137 4.46162 14.0998C4.47111 14.0626 4.48147 14.0257 4.49274 13.989C4.50403 13.9523 4.5162 13.9159 4.52926 13.8798C4.54232 13.8437 4.55625 13.808 4.57106 13.7725C4.58588 13.7371 4.60156 13.7021 4.61806 13.6675C4.63461 13.6328 4.65197 13.5986 4.67018 13.5648C4.68838 13.531 4.7074 13.4977 4.72722 13.4648C4.74705 13.432 4.76768 13.3996 4.7891 13.3677C4.81052 13.3359 4.8327 13.3046 4.85565 13.2738C4.8786 13.243 4.9023 13.2129 4.92672 13.1832C4.95116 13.1536 4.9763 13.1246 5.00212 13.0963C5.02799 13.0679 5.05451 13.0402 5.08172 13.0131C5.10892 12.986 5.13676 12.9596 5.16527 12.9339C5.19377 12.9082 5.22287 12.8832 5.25258 12.8589C5.28232 12.8346 5.3126 12.811 5.34349 12.7882C5.37437 12.7654 5.40577 12.7434 5.43772 12.7221C5.46966 12.7009 5.50212 12.6804 5.53507 12.6607C5.56804 12.641 5.60146 12.6222 5.63534 12.6041C5.66922 12.5861 5.70351 12.5688 5.73822 12.5525C5.77296 12.5361 5.80805 12.5206 5.84353 12.506C5.87901 12.4913 5.91483 12.4776 5.95099 12.4646C5.98715 12.4518 6.02359 12.4398 6.06032 12.4286C6.09708 12.4175 6.13406 12.4073 6.17131 12.398C6.20855 12.3887 6.24599 12.3804 6.28364 12.3729C6.32129 12.3654 6.3591 12.3589 6.39707 12.3533C6.43506 12.3476 6.47313 12.343 6.51134 12.3392C6.54954 12.3355 6.5878 12.3326 6.62613 12.3308C6.66448 12.3289 6.70285 12.3279 6.74123 12.3279L7.54712 12.3279C7.58551 12.3279 7.62388 12.3289 7.66221 12.3307C7.70054 12.3326 7.7388 12.3355 7.77701 12.3392C7.81521 12.343 7.8533 12.3476 7.89127 12.3533C7.92926 12.3589 7.96706 12.3654 8.00471 12.3729C8.04235 12.3803 8.07981 12.3887 8.11703 12.398C8.1543 12.4073 8.19129 12.4175 8.22802 12.4286C8.26478 12.4397 8.30121 12.4517 8.33735 12.4646C8.37351 12.4775 8.40933 12.4913 8.44481 12.506C8.48029 12.5206 8.51541 12.5361 8.55012 12.5525C8.58483 12.5688 8.61914 12.586 8.653 12.6041C8.68689 12.6222 8.7203 12.641 8.75325 12.6607C8.78622 12.6803 8.81868 12.7008 8.85063 12.7221C8.88257 12.7434 8.91399 12.7654 8.94485 12.7882C8.97574 12.811 9.00603 12.8346 9.03574 12.8589C9.06548 12.8832 9.09457 12.9082 9.12308 12.9339C9.15158 12.9596 9.17942 12.986 9.20663 13.0131C9.23383 13.0401 9.26036 13.0679 9.2862 13.0962C9.31206 13.1246 9.33721 13.1536 9.36162 13.1832C9.38604 13.2128 9.40974 13.243 9.43269 13.2738C9.45564 13.3046 9.47782 13.3359 9.49924 13.3677C9.52066 13.3996 9.5413 13.4319 9.56112 13.4648C9.58094 13.4977 9.59996 13.531 9.61817 13.5648C9.63637 13.5986 9.65375 13.6328 9.67026 13.6674C9.6868 13.7021 9.70246 13.7371 9.71726 13.7725C9.73209 13.808 9.74602 13.8437 9.75908 13.8798C9.77214 13.9159 9.78433 13.9523 9.7956 13.989C9.80688 14.0257 9.81726 14.0626 9.82672 14.0998C9.83621 14.137 9.84476 14.1744 9.85239 14.212C9.86005 14.2496 9.86675 14.2874 9.87254 14.3254C9.87834 14.3633 9.88321 14.4014 9.88713 14.4396C9.89106 14.4777 9.89404 14.516 9.89608 14.5543C9.89815 14.5926 9.89927 14.631 9.89944 14.6694L9.89944 15.5733Z"
        fill="white"/>
</svg>