<svg xmlns="http://www.w3.org/2000/svg" xmlns:xlink="http://www.w3.org/1999/xlink" viewBox="0 0 1024 1024">
    <path d="M496.213333 329.856L315.306667 510.848l180.992 181.077333a42.666667 42.666667 0 1 1-60.330667 60.330667l-211.2-211.2a42.453333 42.453333 0 0 1-11.818667-22.613333l-0.597333-5.034667v-5.034667a42.496 42.496 0 0 1 12.373333-27.648l211.2-211.2a42.666667 42.666667 0 0 1 60.373334 60.330667z m298.666667 0l-180.949333 180.992 180.992 181.077333a42.666667 42.666667 0 1 1-60.330667 60.330667l-211.2-211.2a42.453333 42.453333 0 0 1-11.818667-22.613333l-0.597333-5.034667v-5.034667a42.496 42.496 0 0 1 12.373333-27.648l211.2-211.2a42.666667 42.666667 0 0 1 60.373334 60.330667z"
        fill="white"/>
</svg>