<svg xmlns="http://www.w3.org/2000/svg" viewBox="0 0 14 14">
    <path d="M7 12.5417C10.0606 12.5417 12.5417 10.0606 12.5417 7C12.5417 3.9394 10.0606 1.45834 7 1.45834C3.9394 1.45834 1.45834 3.9394 1.45834 7C1.45834 10.0606 3.9394 12.5417 7 12.5417ZM7 14C3.13396 14 0 10.866 0 7C0 3.13396 3.13396 0 7 0C10.866 0 14 3.13396 14 7C14 10.866 10.866 14 7 14ZM6.5625 5.83334L7.4375 5.83334C7.44227 5.83334 7.44704 5.83345 7.45181 5.83368C7.45659 5.83391 7.46134 5.83427 7.46609 5.83473C7.47083 5.83521 7.47558 5.8358 7.48029 5.8365C7.48501 5.83719 7.48971 5.838 7.4944 5.83894C7.49909 5.83987 7.50374 5.84091 7.50838 5.84207C7.51301 5.84324 7.5176 5.84451 7.52217 5.84589C7.52674 5.84727 7.53126 5.84877 7.53576 5.85039C7.54026 5.85199 7.5447 5.85371 7.54912 5.85554C7.55353 5.85736 7.55789 5.8593 7.5622 5.86134C7.56652 5.86338 7.57079 5.86552 7.575 5.86778C7.5792 5.87003 7.58335 5.87238 7.58745 5.87483C7.59154 5.87728 7.59557 5.87984 7.59954 5.88249C7.60352 5.88514 7.60741 5.88789 7.61124 5.89073C7.61508 5.89358 7.61884 5.89652 7.62254 5.89954C7.62623 5.90256 7.62984 5.90568 7.63338 5.90889C7.63692 5.9121 7.64036 5.91538 7.64374 5.91876C7.64712 5.92214 7.6504 5.92558 7.65361 5.92912C7.65682 5.93266 7.65994 5.93627 7.66296 5.93996C7.66598 5.94366 7.66892 5.94742 7.67177 5.95126C7.67461 5.95509 7.67736 5.95898 7.68001 5.96296C7.68266 5.96693 7.68522 5.97096 7.68767 5.97505C7.69012 5.97915 7.69247 5.9833 7.69472 5.98752C7.69698 5.99171 7.69912 5.99598 7.70116 6.0003C7.7032 6.00461 7.70514 6.00897 7.70696 6.01338C7.70879 6.0178 7.71051 6.02224 7.71211 6.02674C7.71373 6.03124 7.71523 6.03576 7.71661 6.04033C7.71799 6.0449 7.71926 6.04949 7.72043 6.05412C7.72159 6.05876 7.72263 6.06341 7.72356 6.0681C7.7245 6.07279 7.72531 6.07749 7.726 6.08221C7.7267 6.08692 7.72729 6.09167 7.72777 6.09641C7.72823 6.10116 7.72859 6.10591 7.72882 6.11069C7.72905 6.11546 7.72916 6.12023 7.72916 6.125L7.72916 10.5C7.72916 10.5048 7.72905 10.5095 7.72882 10.5143C7.72859 10.5191 7.72823 10.5238 7.72777 10.5286C7.72729 10.5333 7.7267 10.5381 7.726 10.5428C7.72531 10.5475 7.7245 10.5522 7.72356 10.5569C7.72263 10.5616 7.72159 10.5662 7.72043 10.5709C7.71926 10.5755 7.71799 10.5801 7.71661 10.5847C7.71523 10.5892 7.71373 10.5938 7.71211 10.5983C7.71051 10.6028 7.70879 10.6072 7.70696 10.6116C7.70514 10.616 7.7032 10.6204 7.70116 10.6247C7.69912 10.629 7.69698 10.6333 7.69472 10.6375C7.69247 10.6417 7.69012 10.6459 7.68767 10.6499C7.68522 10.654 7.68266 10.6581 7.68001 10.662C7.67736 10.666 7.67461 10.6699 7.67177 10.6737C7.66892 10.6776 7.66598 10.6813 7.66296 10.685C7.65994 10.6887 7.65682 10.6923 7.65361 10.6959C7.6504 10.6994 7.64712 10.7029 7.64374 10.7062C7.64036 10.7096 7.63692 10.7129 7.63338 10.7161C7.62984 10.7193 7.62623 10.7224 7.62254 10.7255C7.61884 10.7285 7.61508 10.7314 7.61124 10.7343C7.60741 10.7371 7.60352 10.7399 7.59954 10.7425C7.59557 10.7452 7.59154 10.7477 7.58745 10.7502C7.58335 10.7526 7.5792 10.755 7.57498 10.7572C7.57079 10.7595 7.56652 10.7616 7.5622 10.7637C7.55789 10.7657 7.55353 10.7676 7.54912 10.7695C7.5447 10.7713 7.54026 10.773 7.53576 10.7746C7.53126 10.7762 7.52674 10.7777 7.52217 10.7791C7.5176 10.7805 7.51301 10.7818 7.50838 10.7829C7.50374 10.7841 7.49909 10.7851 7.4944 10.7861C7.48971 10.787 7.48501 10.7878 7.48029 10.7885C7.47558 10.7892 7.47083 10.7898 7.46609 10.7903C7.46134 10.7907 7.45659 10.7911 7.45181 10.7913C7.44704 10.7916 7.44227 10.7917 7.4375 10.7917L6.5625 10.7917C6.55773 10.7917 6.55296 10.7916 6.54819 10.7913C6.54341 10.7911 6.53866 10.7907 6.53391 10.7903C6.52917 10.7898 6.52442 10.7892 6.51971 10.7885C6.51499 10.7878 6.51029 10.787 6.5056 10.7861C6.50091 10.7851 6.49626 10.7841 6.49162 10.7829C6.48699 10.7818 6.4824 10.7805 6.47783 10.7791C6.47326 10.7777 6.46874 10.7762 6.46424 10.7746C6.45974 10.773 6.4553 10.7713 6.45088 10.7695C6.44647 10.7676 6.44211 10.7657 6.4378 10.7637C6.43348 10.7616 6.42921 10.7595 6.425 10.7572C6.4208 10.755 6.41665 10.7526 6.41255 10.7502C6.40846 10.7477 6.40443 10.7452 6.40046 10.7425C6.39648 10.7399 6.39259 10.7371 6.38876 10.7343C6.38492 10.7314 6.38116 10.7285 6.37746 10.7255C6.37377 10.7224 6.37016 10.7193 6.36662 10.7161C6.36308 10.7129 6.35964 10.7096 6.35626 10.7062C6.35288 10.7029 6.3496 10.6994 6.34639 10.6959C6.34318 10.6923 6.34006 10.6887 6.33704 10.685C6.33402 10.6813 6.33108 10.6776 6.32823 10.6737C6.32539 10.6699 6.32264 10.666 6.31999 10.662C6.31734 10.6581 6.31478 10.654 6.31233 10.65C6.30988 10.6459 6.30753 10.6417 6.30528 10.6375C6.30302 10.6333 6.30088 10.629 6.29884 10.6247C6.2968 10.6204 6.29486 10.616 6.29304 10.6116C6.29121 10.6072 6.28949 10.6028 6.28789 10.5983C6.28627 10.5938 6.28477 10.5892 6.28339 10.5847C6.28201 10.5801 6.28074 10.5755 6.27957 10.5709C6.27841 10.5662 6.27737 10.5616 6.27644 10.5569C6.2755 10.5522 6.27469 10.5475 6.274 10.5428C6.2733 10.5381 6.27271 10.5333 6.27223 10.5286C6.27177 10.5238 6.27141 10.5191 6.27118 10.5143C6.27095 10.5095 6.27084 10.5048 6.27084 10.5L6.27084 6.125C6.27084 6.12023 6.27095 6.11546 6.27118 6.11069C6.27141 6.10591 6.27177 6.10116 6.27223 6.09641C6.27271 6.09167 6.2733 6.08692 6.274 6.08221C6.27469 6.07749 6.2755 6.07279 6.27644 6.0681C6.27737 6.06341 6.27841 6.05876 6.27957 6.05412C6.28074 6.04949 6.28201 6.0449 6.28339 6.04033C6.28477 6.03576 6.28627 6.03124 6.28789 6.02674C6.28949 6.02224 6.29121 6.0178 6.29304 6.01338C6.29486 6.00897 6.2968 6.00461 6.29884 6.0003C6.30088 5.99598 6.30302 5.99171 6.30528 5.98752C6.30753 5.9833 6.30988 5.97915 6.31233 5.97505C6.31478 5.97096 6.31734 5.96693 6.31999 5.96296C6.32264 5.95898 6.32539 5.95509 6.32823 5.95126C6.33108 5.94742 6.33402 5.94366 6.33704 5.93996C6.34006 5.93627 6.34318 5.93266 6.34639 5.92912C6.3496 5.92558 6.35288 5.92214 6.35626 5.91876C6.35964 5.91538 6.36308 5.9121 6.36662 5.90889C6.37016 5.90568 6.37377 5.90256 6.37746 5.89954C6.38116 5.89652 6.38492 5.89358 6.38876 5.89073C6.39259 5.88789 6.39648 5.88514 6.40046 5.88249C6.40443 5.87984 6.40846 5.87728 6.41255 5.87483C6.41665 5.87238 6.4208 5.87003 6.42502 5.86778C6.42921 5.86552 6.43348 5.86338 6.4378 5.86134C6.44211 5.8593 6.44647 5.85736 6.45088 5.85554C6.4553 5.85371 6.45974 5.85199 6.46424 5.85039C6.46874 5.84877 6.47326 5.84727 6.47783 5.84589C6.4824 5.84451 6.48699 5.84324 6.49162 5.84207C6.49626 5.84091 6.50091 5.83987 6.5056 5.83894C6.51029 5.838 6.51499 5.83719 6.51971 5.8365C6.52442 5.8358 6.52917 5.83521 6.53391 5.83473C6.53866 5.83427 6.54341 5.83391 6.54819 5.83368C6.55296 5.83345 6.55773 5.83334 6.5625 5.83334ZM6.5625 3.20834L7.4375 3.20834C7.44227 3.20834 7.44704 3.20845 7.45181 3.20868C7.45659 3.20891 7.46134 3.20927 7.46609 3.20973C7.47083 3.21021 7.47558 3.2108 7.48029 3.2115C7.48501 3.21219 7.48971 3.213 7.4944 3.21394C7.49909 3.21487 7.50374 3.21591 7.50838 3.21707C7.51301 3.21824 7.5176 3.21951 7.52217 3.22089C7.52674 3.22227 7.53126 3.22377 7.53576 3.22539C7.54026 3.22699 7.5447 3.22871 7.54912 3.23054C7.55353 3.23236 7.55789 3.2343 7.5622 3.23634C7.56652 3.23837 7.57079 3.24052 7.57498 3.24278C7.5792 3.24503 7.58335 3.24738 7.58744 3.24983C7.59154 3.25228 7.59557 3.25484 7.59954 3.25749C7.60352 3.26014 7.60741 3.26289 7.61124 3.26573C7.61508 3.26858 7.61884 3.27152 7.62254 3.27454C7.62623 3.27756 7.62984 3.28068 7.63338 3.28389C7.63692 3.2871 7.64036 3.29038 7.64374 3.29376C7.64712 3.29714 7.6504 3.30058 7.65361 3.30412C7.65682 3.30766 7.65994 3.31127 7.66296 3.31496C7.66598 3.31866 7.66892 3.32242 7.67177 3.32626C7.67461 3.33009 7.67736 3.33398 7.68001 3.33796C7.68266 3.34193 7.68522 3.34596 7.68767 3.35005C7.69012 3.35415 7.69247 3.3583 7.69472 3.36252C7.69698 3.36671 7.69912 3.37098 7.70116 3.3753C7.7032 3.37961 7.70514 3.38397 7.70696 3.38838C7.70879 3.3928 7.71051 3.39724 7.71211 3.40174C7.71373 3.40624 7.71523 3.41076 7.71661 3.41533C7.71799 3.4199 7.71926 3.42449 7.72043 3.42913C7.72159 3.43376 7.72263 3.43841 7.72356 3.4431C7.7245 3.44779 7.72531 3.45249 7.726 3.45721C7.7267 3.46192 7.72729 3.46667 7.72777 3.47141C7.72823 3.47616 7.72859 3.48091 7.72882 3.48569C7.72905 3.49046 7.72916 3.49523 7.72916 3.5L7.72916 4.375C7.72916 4.37977 7.72905 4.38454 7.72882 4.38931C7.72859 4.39409 7.72823 4.39884 7.72777 4.40359C7.72729 4.40833 7.7267 4.41308 7.726 4.41779C7.72531 4.42251 7.7245 4.42721 7.72356 4.4319C7.72263 4.43659 7.72159 4.44124 7.72043 4.44588C7.71926 4.45051 7.71799 4.4551 7.71661 4.45967C7.71523 4.46424 7.71373 4.46876 7.71211 4.47326C7.71051 4.47776 7.70879 4.4822 7.70696 4.48662C7.70514 4.49103 7.7032 4.49539 7.70116 4.4997C7.69912 4.50402 7.69698 4.50829 7.69472 4.5125C7.69248 4.5167 7.69013 4.52085 7.68767 4.52495C7.68522 4.52904 7.68266 4.53307 7.68001 4.53704C7.67736 4.54102 7.67461 4.54491 7.67177 4.54874C7.66892 4.55258 7.66598 4.55634 7.66296 4.56004C7.65994 4.56373 7.65682 4.56734 7.65361 4.57088C7.6504 4.57442 7.64712 4.57786 7.64374 4.58124C7.64036 4.58462 7.63692 4.5879 7.63338 4.59111C7.62984 4.59432 7.62623 4.59744 7.62254 4.60046C7.61884 4.60348 7.61508 4.60642 7.61124 4.60927C7.60741 4.61211 7.60352 4.61486 7.59954 4.61751C7.59557 4.62016 7.59154 4.62272 7.58745 4.62517C7.58335 4.62763 7.5792 4.62998 7.575 4.63222C7.57079 4.63448 7.56652 4.63662 7.5622 4.63866C7.55789 4.6407 7.55353 4.64264 7.54912 4.64446C7.5447 4.64629 7.54026 4.64801 7.53576 4.64961C7.53126 4.65123 7.52674 4.65273 7.52217 4.65411C7.5176 4.65549 7.51301 4.65676 7.50838 4.65793C7.50374 4.65909 7.49909 4.66013 7.4944 4.66106C7.48971 4.662 7.48501 4.66281 7.48029 4.6635C7.47558 4.6642 7.47083 4.66479 7.46609 4.66527C7.46134 4.66573 7.45659 4.66609 7.45181 4.66632C7.44704 4.66655 7.44227 4.66666 7.4375 4.66666L6.5625 4.66666C6.55773 4.66666 6.55296 4.66655 6.54819 4.66632C6.54341 4.66609 6.53866 4.66573 6.53391 4.66527C6.52917 4.66479 6.52442 4.6642 6.51971 4.6635C6.51499 4.66281 6.51029 4.662 6.5056 4.66106C6.50091 4.66013 6.49626 4.65909 6.49162 4.65793C6.48699 4.65676 6.4824 4.65549 6.47783 4.65411C6.47326 4.65273 6.46874 4.65123 6.46424 4.64961C6.45974 4.64801 6.4553 4.64629 6.45088 4.64446C6.44647 4.64264 6.44211 4.6407 6.4378 4.63866C6.43348 4.63662 6.42921 4.63448 6.42502 4.63222C6.4208 4.62998 6.41665 4.62763 6.41256 4.62517C6.40846 4.62272 6.40443 4.62016 6.40046 4.61751C6.39648 4.61486 6.39259 4.61211 6.38876 4.60927C6.38492 4.60642 6.38116 4.60348 6.37746 4.60046C6.37377 4.59744 6.37016 4.59432 6.36662 4.59111C6.36308 4.5879 6.35964 4.58462 6.35626 4.58124C6.35288 4.57786 6.3496 4.57442 6.34639 4.57088C6.34318 4.56734 6.34006 4.56373 6.33704 4.56004C6.33402 4.55634 6.33108 4.55258 6.32823 4.54874C6.32539 4.54491 6.32264 4.54102 6.31999 4.53704C6.31734 4.53307 6.31478 4.52904 6.31233 4.52495C6.30988 4.52085 6.30753 4.5167 6.30528 4.5125C6.30302 4.50829 6.30088 4.50402 6.29884 4.4997C6.2968 4.49539 6.29486 4.49103 6.29304 4.48662C6.29121 4.4822 6.28949 4.47776 6.28789 4.47326C6.28627 4.46876 6.28477 4.46424 6.28339 4.45967C6.28201 4.4551 6.28074 4.45051 6.27957 4.44588C6.27841 4.44124 6.27737 4.43659 6.27644 4.4319C6.2755 4.42721 6.27469 4.42251 6.274 4.41779C6.2733 4.41308 6.27271 4.40833 6.27223 4.40359C6.27177 4.39884 6.27141 4.39409 6.27118 4.38931C6.27095 4.38454 6.27084 4.37977 6.27084 4.375L6.27084 3.5C6.27084 3.49523 6.27095 3.49046 6.27118 3.48569C6.27141 3.48091 6.27177 3.47616 6.27223 3.47141C6.27271 3.46667 6.2733 3.46192 6.274 3.45721C6.27469 3.45249 6.2755 3.44779 6.27644 3.4431C6.27737 3.43841 6.27841 3.43376 6.27957 3.42913C6.28074 3.42449 6.28201 3.4199 6.28339 3.41533C6.28477 3.41076 6.28627 3.40624 6.28789 3.40174C6.28949 3.39724 6.29121 3.3928 6.29304 3.38838C6.29486 3.38397 6.2968 3.37961 6.29884 3.3753C6.30088 3.37098 6.30302 3.36671 6.30528 3.36252C6.30753 3.3583 6.30988 3.35415 6.31233 3.35006C6.31478 3.34596 6.31734 3.34193 6.31999 3.33796C6.32264 3.33398 6.32539 3.33009 6.32823 3.32626C6.33108 3.32242 6.33402 3.31866 6.33704 3.31496C6.34006 3.31127 6.34318 3.30766 6.34639 3.30412C6.3496 3.30058 6.35288 3.29714 6.35626 3.29376C6.35964 3.29038 6.36308 3.2871 6.36662 3.28389C6.37016 3.28068 6.37377 3.27756 6.37746 3.27454C6.38116 3.27152 6.38492 3.26858 6.38876 3.26573C6.39259 3.26289 6.39648 3.26014 6.40046 3.25749C6.40443 3.25484 6.40846 3.25228 6.41255 3.24983C6.41665 3.24738 6.4208 3.24503 6.42502 3.24278C6.42921 3.24052 6.43348 3.23837 6.4378 3.23634C6.44211 3.2343 6.44647 3.23236 6.45088 3.23054C6.4553 3.22871 6.45974 3.22699 6.46424 3.22539C6.46874 3.22377 6.47326 3.22227 6.47783 3.22089C6.4824 3.21951 6.48699 3.21824 6.49162 3.21707C6.49626 3.21591 6.50091 3.21487 6.5056 3.21394C6.51029 3.213 6.51499 3.21219 6.51971 3.2115C6.52442 3.2108 6.52917 3.21021 6.53391 3.20973C6.53866 3.20927 6.54341 3.20891 6.54819 3.20868C6.55296 3.20845 6.55773 3.20834 6.5625 3.20834Z"
          fill="white"/>
</svg>