<svg xmlns="http://www.w3.org/2000/svg" viewBox="0 0 17 19">
    <path d="M8.5 0L0 4.75L0 14.3537L8.5 19L17 14.3537L17 4.80146L8.5 3.77496e-07L8.5 0ZM7.72727 16.7833L2.57782 13.969L5.82405 11.7515C6.65859 11.1823 5.77305 9.88396 4.86355 10.5046L1.54545 12.7704L1.54545 6.51542L7.72727 9.96946L7.72727 16.7833ZM2.42095 5.20125L7.72727 2.23567L7.72727 5.73958C7.72727 6.78696 9.27273 6.78775 9.27273 5.73958L9.27273 2.24437L14.6123 5.26142L8.50386 8.60067L2.42095 5.20125ZM9.27273 9.975L15.4545 6.59537L15.4545 12.7704L12.1604 10.5205C11.2478 9.899 10.3654 11.1973 11.1984 11.7665L14.4222 13.9682L9.27273 16.7833L9.27273 9.975Z"
        fill="white"/>
</svg>