<svg xmlns="http://www.w3.org/2000/svg" xmlns:xlink="http://www.w3.org/1999/xlink" viewBox="0 0 18 15.4">
    <path d="M16.4729 0L1.52713 0C0.685198 0 0 0.685198 0 1.52713L0 13.8506C0 14.6926 0.685198 15.3778 1.52713 15.3778L16.4729 15.3778C17.3148 15.3778 18 14.6926 18 13.8506L18 1.52713C18 0.685198 17.3148 0 16.4729 0ZM1.52713 1.44675L16.4729 1.44675C16.5171 1.44675 16.5532 1.48292 16.5532 1.52713L16.5532 8.98794L14.6966 6.65305C14.2605 6.10449 13.6095 5.77495 12.9123 5.74883C12.215 5.72271 11.5439 6.00402 11.0697 6.51842L7.82451 10.0348C7.76825 10.0951 7.67984 10.1052 7.61353 10.061L5.54387 8.64836C4.91092 8.21634 4.08104 8.19625 3.428 8.59411L1.44675 9.80174L1.44675 1.52713C1.44675 1.48292 1.48292 1.44675 1.52713 1.44675ZM16.4729 13.931L1.52713 13.931C1.48292 13.931 1.44675 13.8948 1.44675 13.8506L1.44675 11.4956L4.18151 9.82786C4.3503 9.72538 4.5653 9.73141 4.72806 9.84193L6.79772 11.2545C7.11721 11.4715 7.50301 11.568 7.88681 11.5238C8.26859 11.4796 8.62425 11.2987 8.88748 11.0154L12.1346 7.499C12.3255 7.29203 12.5827 7.18352 12.862 7.19558C13.1413 7.20563 13.3905 7.33222 13.5673 7.55325L16.5553 11.3108L16.5553 13.8486C16.5532 13.8948 16.5171 13.931 16.4729 13.931ZM3.35968 5.42532C3.37571 5.44214 3.39215 5.45857 3.40899 5.47459C3.42585 5.4906 3.44309 5.50618 3.46071 5.52133C3.47833 5.53648 3.49634 5.55119 3.51468 5.56543C3.53305 5.5797 3.55175 5.59348 3.57078 5.60681C3.58983 5.62013 3.6092 5.63297 3.62889 5.64532C3.64857 5.65768 3.66856 5.66954 3.68883 5.68091C3.70911 5.69226 3.72967 5.70311 3.75048 5.71344C3.7713 5.72379 3.79236 5.7336 3.81368 5.74288C3.83498 5.75216 3.8565 5.7609 3.87826 5.76912C3.9 5.77734 3.92192 5.785 3.94405 5.79213C3.96617 5.79924 3.98847 5.80581 4.01092 5.81182C4.03338 5.81783 4.05597 5.82328 4.07869 5.82816C4.10142 5.83304 4.12425 5.83734 4.14719 5.84108C4.17012 5.84484 4.19315 5.84801 4.21626 5.8506C4.23934 5.85319 4.26249 5.8552 4.2857 5.85665C4.30889 5.8581 4.3321 5.85896 4.35534 5.85924C4.37859 5.85952 4.40182 5.85922 4.42505 5.85836C4.44828 5.85747 4.47147 5.85603 4.49464 5.854C4.51778 5.85197 4.54087 5.84936 4.5639 5.84616C4.58693 5.84299 4.60985 5.83923 4.63268 5.83491C4.65553 5.83059 4.67823 5.82569 4.70084 5.82022C4.72342 5.81478 4.74587 5.80875 4.76817 5.80218C4.79046 5.79561 4.81258 5.78847 4.8345 5.7808C4.85644 5.7731 4.87818 5.76488 4.89971 5.75612C4.92123 5.74736 4.94252 5.73806 4.9636 5.72823C4.98466 5.71841 5.00546 5.70808 5.02601 5.69721C5.04657 5.68634 5.06683 5.67498 5.08682 5.66311C5.10679 5.65123 5.12646 5.63885 5.14583 5.62601C5.1652 5.61315 5.18423 5.59983 5.20294 5.58603C5.22165 5.57222 5.23999 5.55796 5.25798 5.54325C5.27596 5.52852 5.29358 5.51337 5.3108 5.49778C5.32804 5.48216 5.34488 5.46615 5.3613 5.44973C5.37774 5.4333 5.39375 5.41646 5.40936 5.39922C5.42496 5.382 5.44011 5.36437 5.45484 5.34639C5.46954 5.32841 5.48381 5.31006 5.49762 5.29135C5.51142 5.27265 5.52474 5.25362 5.5376 5.23425C5.55044 5.21488 5.56282 5.1952 5.5747 5.17523C5.58657 5.15524 5.59792 5.13498 5.60879 5.11443C5.61967 5.09387 5.62999 5.07307 5.63982 5.05202C5.64964 5.03094 5.65895 5.00964 5.66771 4.98812C5.67647 4.9666 5.68469 4.94486 5.69238 4.92291C5.70006 4.90099 5.70719 4.87887 5.71376 4.85658C5.72034 4.83428 5.72636 4.81184 5.73181 4.78925C5.73727 4.76664 5.74218 4.74394 5.7465 4.72109C5.75082 4.69827 5.75457 4.67534 5.75775 4.65231C5.76094 4.62928 5.76356 4.6062 5.76559 4.58305C5.76762 4.55988 5.76906 4.53669 5.76993 4.51346C5.77081 4.49023 5.77111 4.46701 5.77083 4.44376C5.77055 4.42051 5.76969 4.3973 5.76824 4.37411C5.76679 4.3509 5.76478 4.32776 5.76219 4.30467C5.7596 4.28156 5.75642 4.25853 5.75267 4.23561C5.74893 4.21266 5.74463 4.18983 5.73975 4.16711C5.73486 4.14438 5.72942 4.12178 5.72341 4.09933C5.7174 4.07689 5.71083 4.05458 5.70372 4.03246C5.69658 4.01033 5.68893 3.98841 5.68071 3.96667C5.67249 3.94491 5.66375 3.92339 5.65447 3.90209C5.64518 3.88077 5.63538 3.85971 5.62503 3.83889C5.6147 3.81808 5.60385 3.79752 5.5925 3.77725C5.58115 3.75697 5.56927 3.73698 5.55691 3.71731C5.54455 3.69762 5.53171 3.67825 5.51839 3.6592C5.50507 3.64017 5.49129 3.62146 5.47702 3.60309C5.46277 3.58475 5.44806 3.56674 5.43291 3.54912C5.41776 3.5315 5.40219 3.51426 5.38618 3.4974C5.37016 3.48056 5.35372 3.46413 5.33691 3.44809C5.32087 3.43127 5.30443 3.41484 5.2876 3.39882C5.27074 3.38281 5.2535 3.36723 5.23587 3.35208C5.21825 3.33693 5.20025 3.32222 5.1819 3.30798C5.16354 3.29371 5.14483 3.27993 5.1258 3.2666C5.10675 3.25328 5.08738 3.24044 5.06769 3.22808C5.04802 3.21573 5.02802 3.20385 5.00775 3.1925C4.98747 3.18115 4.96692 3.17029 4.9461 3.15997C4.92528 3.14962 4.90423 3.13981 4.88291 3.13053C4.86161 3.12125 4.84009 3.1125 4.81833 3.10429C4.79658 3.09607 4.77466 3.08841 4.75254 3.08128C4.73042 3.07417 4.70811 3.0676 4.68567 3.06159C4.6632 3.05558 4.64062 3.05013 4.61789 3.04525C4.59516 3.04037 4.57234 3.03607 4.54939 3.03231C4.52646 3.02857 4.50344 3.0254 4.48033 3.02281C4.45724 3.02021 4.43409 3.0182 4.41088 3.01676C4.3877 3.01531 4.36449 3.01445 4.34124 3.01417C4.31799 3.01388 4.29476 3.01419 4.27153 3.01505C4.24831 3.01593 4.22512 3.01738 4.20195 3.01941C4.1788 3.02144 4.15571 3.02405 4.13269 3.02725C4.10966 3.03042 4.08673 3.03418 4.0639 3.0385C4.04106 3.04282 4.01835 3.04772 3.99575 3.05319C3.97316 3.05863 3.95072 3.06466 3.92841 3.07123C3.90613 3.0778 3.88401 3.08494 3.86206 3.09261C3.84014 3.10031 3.8184 3.10853 3.79688 3.11729C3.77536 3.12605 3.75406 3.13535 3.73298 3.14518C3.71192 3.155 3.69113 3.16533 3.67057 3.1762C3.65001 3.18707 3.62976 3.19843 3.60977 3.2103C3.58979 3.22218 3.57012 3.23455 3.55075 3.24739C3.53138 3.26025 3.51235 3.27358 3.49364 3.28738C3.47494 3.30119 3.45659 3.31545 3.43861 3.33016C3.42062 3.34489 3.403 3.36004 3.38578 3.37563C3.36854 3.39125 3.3517 3.40726 3.33526 3.42368C3.31883 3.44011 3.30281 3.45695 3.28722 3.47419C3.27163 3.49141 3.25648 3.50904 3.24175 3.52702C3.22704 3.545 3.21277 3.56335 3.19897 3.58206C3.18516 3.60076 3.17184 3.61979 3.15898 3.63916C3.14614 3.65853 3.13376 3.67821 3.12189 3.69818C3.11001 3.71817 3.09866 3.73843 3.08779 3.75898C3.07692 3.77954 3.06659 3.80033 3.05676 3.82139C3.04694 3.84247 3.03764 3.86377 3.02887 3.88529C3.02011 3.90681 3.0119 3.92855 3.0042 3.9505C2.99652 3.97242 2.98939 3.99454 2.98282 4.01683C2.97625 4.03913 2.97022 4.06157 2.96476 4.08416C2.95931 4.10676 2.95441 4.12947 2.95009 4.15232C2.94577 4.17514 2.94201 4.19807 2.93883 4.2211C2.93564 4.24413 2.93303 4.26721 2.931 4.29036C2.92897 4.31353 2.92752 4.33672 2.92664 4.35995C2.92577 4.38317 2.92547 4.4064 2.92575 4.42965C2.92603 4.4529 2.9269 4.47611 2.92835 4.4993C2.92979 4.5225 2.9318 4.54565 2.93439 4.56874C2.93699 4.59185 2.94016 4.61488 2.9439 4.6378C2.94766 4.66075 2.95196 4.68358 2.95684 4.7063C2.96172 4.72903 2.96717 4.75161 2.97317 4.77408C2.97918 4.79652 2.98575 4.81883 2.99287 4.84095C2.99998 4.86307 3.00766 4.885 3.01587 4.90674C3.02409 4.9285 3.03283 4.95002 3.04212 4.97132C3.0514 4.99264 3.06121 5.0137 3.07155 5.03451C3.08188 5.05533 3.09273 5.07589 3.10409 5.09616C3.11544 5.11644 3.12731 5.13643 3.13967 5.1561C3.15203 5.17579 3.16487 5.19516 3.17819 5.21421C3.19151 5.23324 3.2053 5.25195 3.21956 5.27031C3.23381 5.28866 3.24852 5.30666 3.26367 5.32429C3.27882 5.34191 3.29439 5.35915 3.31041 5.37601C3.32642 5.39285 3.34286 5.40928 3.35968 5.42532Z"
        fill="white"/>
</svg>