<svg xmlns="http://www.w3.org/2000/svg" viewBox="-70 0 1000 887">
    <path d="M445.157,886.347 C326.267,886.347 214.498,840.269 130.427,756.617 C46.356,672.965 0,561.601 0,443.157 C0,324.713 46.327,213.413 130.398,129.73 C214.469,46.047 326.218,0 445.128,0 C564.038,0 675.787,46.078 759.848,129.73 C843.909,213.382 890.277,324.745 890.277,443.118 C890.277,561.491 843.958,672.895 759.85,756.577 C675.742,840.259 564.05,886.347 445.158,886.347 L445.157,886.347 Z M445.157,63.563 C343.185,63.563 247.348,103.057 175.292,174.785 C103.236,246.513 63.592,341.782 63.592,443.158 C63.592,544.534 103.245,639.853 175.262,711.493 C247.279,783.133 343.126,822.715 445.128,822.715 C547.13,822.715 642.937,783.231 714.993,711.493 C787.049,639.755 826.693,544.495 826.663017,443.119 C826.633,341.744 787.009,246.454 714.993,174.816 C642.977,103.178 547.1,63.563 445.157,63.563 Z M667.742,411.363 L476.953,411.363 L476.953,220.575 C476.193,203.014 461.34,189.395 443.78,190.156 C427.285,190.87 414.076,204.08 413.361,220.575 L413.361,411.362 L222.583,411.362 C205.023,412.123 191.404,426.976 192.164,444.536 C192.879,461.03 206.088,474.239 222.584,474.954 L413.36,474.954 L413.36,665.742 C414.121,683.302 428.974,696.921 446.534,696.161 C463.028,695.446 476.237,682.236 476.952,665.741 L476.952,474.955 L667.74,474.955 C685.3,475.717 700.153,462.098 700.913,444.537 C701.675,426.976 688.055,412.123 670.494,411.363 C669.576767,411.323112 668.658233,411.323112 667.741,411.363 L667.742,411.363 Z"
        fill="white" />
</svg>